<?xml version="1.0" encoding="UTF-8" standalone="no"?><!DOCTYPE svg PUBLIC "-//W3C//DTD SVG 1.1//EN" "http://www.w3.org/Graphics/SVG/1.1/DTD/svg11.dtd"><svg width="100%" height="100%" viewBox="0 0 400 600" version="1.1" xmlns="http://www.w3.org/2000/svg" xmlns:xlink="http://www.w3.org/1999/xlink" xml:space="preserve" xmlns:serif="http://www.serif.com/" style="fill-rule:evenodd;clip-rule:evenodd;stroke-linejoin:round;stroke-miterlimit:2;"><g id="Layer1"><path d="M400,10c0,-5.519 -4.481,-10 -10,-10l-380,0c-5.519,0 -10,4.481 -10,10l0,580c0,5.519 4.481,10 10,10l380,0c5.519,0 10,-4.481 10,-10l0,-580Z" style="fill:#ebebeb;"/></g><path d="M185.138,98.617l0,11.766c9.816,0 17.779,7.98 17.779,17.817c0,9.839 -7.963,17.817 -17.779,17.817l0,11.766c9.816,0 17.779,7.981 17.779,17.817c0,9.839 -7.963,17.817 -17.779,17.817l0,11.766c16.359,0 29.545,-13.176 29.545,-29.583c0,-9.733 -4.657,-18.336 -11.827,-23.7c7.17,-5.362 11.827,-13.964 11.827,-23.7c0,-16.405 -13.186,-29.583 -29.545,-29.583Z" style="fill:#b32e56;fill-rule:nonzero;"/><g id="Layer_1"><g><rect x="24.9" y="44.1" width="95.1" height="76.9" style="fill:none;"/></g></g><path d="M200,224.185l130,260l-260,0l130,-260Z" style="fill:#b32e56;"/></svg>