<?xml version="1.0" encoding="UTF-8" standalone="no"?><!DOCTYPE svg PUBLIC "-//W3C//DTD SVG 1.1//EN" "http://www.w3.org/Graphics/SVG/1.1/DTD/svg11.dtd"><svg width="100%" height="100%" viewBox="0 0 400 600" version="1.1" xmlns="http://www.w3.org/2000/svg" xmlns:xlink="http://www.w3.org/1999/xlink" xml:space="preserve" xmlns:serif="http://www.serif.com/" style="fill-rule:evenodd;clip-rule:evenodd;stroke-linejoin:round;stroke-miterlimit:2;"><g id="Layer1"><path d="M400,10c0,-5.519 -4.481,-10 -10,-10l-380,0c-5.519,0 -10,4.481 -10,10l0,580c0,5.519 4.481,10 10,10l380,0c5.519,0 10,-4.481 10,-10l0,-580Z" style="fill:#ebebeb;"/></g><path d="M178.531,98.617l-0.014,35.166l11.766,0c9.846,0 17.834,8.017 17.834,17.917c0,9.894 -7.988,17.917 -17.834,17.917l0,11.766c16.42,0 29.6,-13.194 29.6,-29.683c0,-16.497 -13.18,-29.683 -29.6,-29.683l0,-11.634l11.986,0l0,-11.766l-23.738,0Z" style="fill:#b32e56;fill-rule:nonzero;"/><g id="Layer_1"><g><rect x="24.9" y="44.1" width="95.1" height="76.9" style="fill:none;"/></g></g><path d="M200,224.185l130,260l-260,0l130,-260Z" style="fill:#b32e56;"/></svg>