<?xml version="1.0" encoding="utf-8"?>
<!-- Generator: Adobe Illustrator 22.1.0, SVG Export Plug-In . SVG Version: 6.00 Build 0)  -->
<svg version="1.1" xmlns="http://www.w3.org/2000/svg" xmlns:xlink="http://www.w3.org/1999/xlink" x="0px" y="0px"
	 viewBox="0 0 400 600" style="enable-background:new 0 0 400 600;" xml:space="preserve">
<style type="text/css">
	.st0{fill:#FFFFFF;}
	.st1{fill:none;}
	.st2{fill:#C42742;}
	.st3{font-family:'hngl';}
	.st4{font-size:72px;}
	.st5{display:none;stroke:#000000;stroke-width:0.25;stroke-miterlimit:10;}
	.st6{display:none;fill:none;stroke:#000000;stroke-width:0.25;stroke-miterlimit:10;}
	.st7{fill:none;stroke:#C42742;stroke-width:5;stroke-miterlimit:10;}
	.st8{display:none;}
</style>
<g id="Layer_2">
	<path class="st0" d="M390,600H10c-5.5,0-10-4.5-10-10V10C0,4.5,4.5,0,10,0h380c5.5,0,10,4.5,10,10v580C400,595.5,395.5,600,390,600
		z"/>
</g>
<g id="Layer_1">
	<g>
		<g>
			<rect x="280" y="479" class="st1" width="95.1" height="76.9"/>
			<text transform="matrix(-1 0 0 -1 334.0371 521.9214)" class="st2 st3 st4">1</text>
			<line class="st5" x1="400" y1="300" x2="0" y2="300"/>
			<line class="st6" x1="200" y1="600" x2="200" y2="0"/>
			<polygon class="st7" points="327.5,494 344.8,464 310.2,464 			"/>
		</g>
	</g>
	<g>
		<g>
			<rect x="24.9" y="44.1" class="st1" width="95.1" height="76.9"/>
			<text transform="matrix(1 0 0 1 65.9621 78.0785)" class="st2 st3 st4">1</text>
			<line class="st5" x1="0" y1="300" x2="400" y2="300"/>
			<line class="st6" x1="200" y1="0" x2="200" y2="600"/>
			<polygon class="st7" points="72.5,106 55.2,136 89.8,136 			"/>
		</g>
	</g>
</g>
<g id="Layer_3" class="st8">
</g>
</svg>
