<?xml version="1.0" encoding="UTF-8" standalone="no"?><!DOCTYPE svg PUBLIC "-//W3C//DTD SVG 1.1//EN" "http://www.w3.org/Graphics/SVG/1.1/DTD/svg11.dtd"><svg width="100%" height="100%" viewBox="0 0 400 600" version="1.1" xmlns="http://www.w3.org/2000/svg" xmlns:xlink="http://www.w3.org/1999/xlink" xml:space="preserve" xmlns:serif="http://www.serif.com/" style="fill-rule:evenodd;clip-rule:evenodd;stroke-linejoin:round;stroke-miterlimit:2;"><g id="Layer1"><path d="M400,10c0,-5.519 -4.481,-10 -10,-10l-380,0c-5.519,0 -10,4.481 -10,10l0,580c0,5.519 4.481,10 10,10l380,0c5.519,0 10,-4.481 10,-10l0,-580Z" style="fill:#ebebeb;"/></g><rect x="70" y="315" width="260" height="130" style="fill:#b32e56;"/><rect x="161.817" y="122.012" width="11.765" height="59.375" style="fill:#b32e56;fill-rule:nonzero;"/><path d="M208.383,98.617l0,11.766c9.846,0 17.834,7.935 17.834,17.717c0,9.784 -7.988,17.717 -17.834,17.717l-11.766,0l0,35.566l35.483,0l0,-11.766l-23.717,0l0,-12.034c16.42,0 29.6,-13.178 29.6,-29.483c0,-16.313 -13.18,-29.483 -29.6,-29.483Z" style="fill:#b32e56;fill-rule:nonzero;"/><g id="Layer_1"><g><rect x="24.9" y="44.1" width="95.1" height="76.9" style="fill:none;"/></g></g><rect x="135" y="250" width="130" height="260" style="fill:#b32e56;"/></svg>