<?xml version="1.0" encoding="utf-8"?>
<!-- Generator: Adobe Illustrator 22.1.0, SVG Export Plug-In . SVG Version: 6.00 Build 0)  -->
<svg version="1.1" xmlns="http://www.w3.org/2000/svg" xmlns:xlink="http://www.w3.org/1999/xlink" x="0px" y="0px"
	 viewBox="0 0 400 600" style="enable-background:new 0 0 400 600;" xml:space="preserve">
<style type="text/css">
	.st0{fill:none;}
	.st1{fill:#226ADD;}
	.st2{font-family:'hngl';}
	.st3{font-size:72px;}
	.st4{display:none;stroke:#000000;stroke-width:0.25;stroke-miterlimit:10;}
	.st5{display:none;fill:none;stroke:#000000;stroke-width:0.25;stroke-miterlimit:10;}
	.st6{fill:none;stroke:#226ADD;stroke-width:5;stroke-miterlimit:10;}
	.st7{display:none;}
</style>
<g id="Layer_2">
</g>
<g id="Layer_1">
	<g>
		<g>
			<rect x="280" y="479" class="st0" width="95.1" height="76.9"/>
			<text transform="matrix(-1 0 0 -1 344.585 521.9214)" class="st1 st2 st3">x</text>
			<line class="st4" x1="400" y1="300" x2="0" y2="300"/>
			<line class="st5" x1="200" y1="600" x2="200" y2="0"/>
			<polygon class="st6" points="327.5,492.1 316.8,497.8 318.9,485.9 310.2,477.4 322.2,475.7 327.5,464.9 332.9,475.7 344.8,477.4 
				336.2,485.9 338.2,497.8 			"/>
		</g>
	</g>
	<g>
		<g>
			<rect x="24.9" y="44.1" class="st0" width="95.1" height="76.9"/>
			<text transform="matrix(1 0 0 1 55.4143 78.0785)" class="st1 st2 st3">x</text>
			<line class="st4" x1="0" y1="300" x2="400" y2="300"/>
			<line class="st5" x1="200" y1="0" x2="200" y2="600"/>
			<polygon class="st6" points="72.5,107.9 83.2,102.2 81.1,114.1 89.8,122.6 77.8,124.3 72.5,135.1 67.1,124.3 55.2,122.6 
				63.8,114.1 61.8,102.2 			"/>
		</g>
	</g>
</g>
<g id="Layer_3" class="st7">
</g>
</svg>
