<?xml version="1.0" encoding="UTF-8" standalone="no"?><!DOCTYPE svg PUBLIC "-//W3C//DTD SVG 1.1//EN" "http://www.w3.org/Graphics/SVG/1.1/DTD/svg11.dtd"><svg width="100%" height="100%" viewBox="0 0 800 800" version="1.1" xmlns="http://www.w3.org/2000/svg" xmlns:xlink="http://www.w3.org/1999/xlink" xml:space="preserve" xmlns:serif="http://www.serif.com/" style="fill-rule:evenodd;clip-rule:evenodd;stroke-linejoin:round;stroke-miterlimit:2;"><g id="Layer1"><rect x="0" y="0" width="800" height="800" style="fill:#ebebeb;"/></g><path d="M254.437,388.087c-19.212,0 -33.481,-5.609 -42.807,-16.828c-9.325,-11.219 -13.988,-28.468 -13.988,-51.747l0,-70.678l36.18,0l0,74.885c0,12.06 1.613,20.615 4.838,25.663c3.226,5.049 8.485,7.573 15.777,7.573c7.292,0 12.621,-2.559 15.986,-7.678c3.366,-5.119 5.049,-13.638 5.049,-25.558l0,-74.885l34.918,0l0,70.678c0,23.419 -4.557,40.703 -13.673,51.852c-9.115,11.149 -23.208,16.723 -42.28,16.723Z" style="fill:#b32e56;fill-rule:nonzero;"/><path d="M339.839,248.834l37.022,0l30.291,61.002l13.042,30.711l0.841,0c-0.14,-1.542 -0.491,-4.347 -1.052,-8.414c-2.384,-19.352 -3.576,-33.936 -3.576,-43.753l0,-39.546l34.498,0l0,136.729l-37.022,0l-30.29,-61.213l-13.042,-30.501l-0.842,0l1.262,11.149c2.244,17.67 3.366,31.342 3.366,41.019l0,39.546l-34.498,0l0,-136.729Z" style="fill:#b32e56;fill-rule:nonzero;"/><path d="M538.832,388.087c-12.621,0 -23.735,-2.84 -33.341,-8.519c-9.606,-5.68 -17.038,-13.919 -22.297,-24.717c-5.259,-10.798 -7.888,-23.559 -7.888,-38.284c0,-14.724 2.629,-27.38 7.888,-37.968c5.259,-10.588 12.691,-18.616 22.297,-24.085c9.606,-5.469 20.72,-8.204 33.341,-8.204c12.621,0 23.735,2.77 33.341,8.309c9.606,5.539 17.038,13.568 22.297,24.085c5.259,10.518 7.888,23.139 7.888,37.863c0,14.725 -2.629,27.486 -7.888,38.284c-5.259,10.798 -12.691,19.037 -22.297,24.717c-9.606,5.679 -20.72,8.519 -33.341,8.519Zm0,-31.132c8.134,0 14.584,-3.611 19.352,-10.833c4.768,-7.222 7.152,-17.074 7.152,-29.555c0,-12.34 -2.349,-21.946 -7.046,-28.818c-4.698,-6.871 -11.184,-10.307 -19.458,-10.307c-8.274,0 -14.76,3.436 -19.457,10.307c-4.698,6.872 -7.047,16.478 -7.047,28.818c0,12.481 2.384,22.333 7.152,29.555c4.768,7.222 11.218,10.833 19.352,10.833Z" style="fill:#b32e56;fill-rule:nonzero;"/><path d="M259.863,462.947l21.307,29.354c1.639,2.235 2.533,4.321 2.533,6.556c0,2.682 -1.192,5.513 -3.129,8.94l-5.811,10.728c-4.172,7.748 -7.599,9.09 -11.771,9.09c-6.11,0 -9.388,-4.918 -11.176,-12.517l-10.728,-47.234c-2.235,-9.536 -5.96,-12.516 -11.622,-12.516c-6.705,0 -12.516,5.066 -17.284,12.218l-33.973,50.81c-4.768,7.152 -7.301,9.835 -11.175,9.835c-5.365,0 -8.047,-3.13 -8.047,-7.6c0,-4.023 2.086,-7.301 5.662,-12.814l21.606,-34.271c5.513,-8.642 9.238,-16.241 9.238,-22.648c0,-8.94 -6.854,-14.9 -23.691,-14.9c-23.99,0 -38.592,28.31 -38.592,48.873c0,3.874 3.427,6.258 6.109,6.258c4.768,0 7.599,-2.682 8.344,-9.089l3.576,-27.119c0.745,-5.662 4.172,-7.897 7.599,-7.897c3.725,0 5.811,3.278 4.768,9.089l-13.261,66.455c-0.596,3.129 -0.745,5.961 -0.745,8.643c0,14.751 8.94,22.499 21.159,22.499c6.109,0 13.41,-3.278 18.327,-10.132l41.572,-58.26c1.49,-2.086 3.427,-4.023 5.364,-4.023c2.384,0 3.129,1.639 3.129,3.278c0,1.043 -0.149,2.533 -0.745,3.725l-11.175,23.691c-12.218,25.778 -7.599,41.721 14.602,41.721c32.036,0 50.214,-43.211 50.214,-72.266c0,-34.271 -7.003,-45.446 -18.625,-45.446c-11.473,0 -18.924,6.705 -18.924,15.049c0,3.725 2.235,7.599 5.365,11.92Z" style="fill:#303577;fill-rule:nonzero;"/><path d="M403.949,435.978c-12.07,0 -17.583,6.556 -17.583,14.751c0,4.619 2.682,9.387 7.301,14.751l6.408,7.301c2.831,3.129 5.811,4.917 4.768,9.835c-0.894,4.321 -4.172,5.811 -10.282,5.811l-63.326,0c-5.066,0 -8.642,-2.086 -8.642,-6.109c0,-2.832 0.745,-5.067 5.215,-7.6l16.986,-9.685c5.215,-2.98 8.941,-8.642 8.941,-15.347c0,-8.046 -5.812,-13.708 -15.944,-13.708c-15.943,0 -20.115,14.155 -21.307,24.883l-7.897,73.459c-1.49,14.155 6.556,19.37 15.049,19.37c8.94,0 17.582,-6.705 17.582,-15.347c0,-4.768 -2.533,-10.132 -7.301,-15.348c-3.725,-4.023 -7.748,-6.705 -7.748,-10.281c0,-2.235 1.192,-3.874 7.748,-5.215l56.621,-11.175c5.066,-1.192 10.431,-0.894 10.431,3.278c0,2.384 -1.193,5.811 -4.471,8.791l-13.857,13.112c-7.003,6.557 -8.195,12.07 -8.195,16.838c0,7.599 5.364,15.347 15.347,15.347c15.944,0 19.669,-9.685 20.861,-20.413l8.94,-82.846c0.894,-8.94 -7.152,-14.453 -15.645,-14.453Z" style="fill:#303577;fill-rule:nonzero;"/><path d="M490.221,435.978c-34.568,0 -52.747,20.115 -52.747,59.154c0,39.039 18.179,58.558 52.747,58.558c34.718,0 52.897,-19.519 52.897,-58.558c0,-39.039 -18.179,-59.154 -52.897,-59.154Zm41.87,60.495c5.066,6.109 3.576,12.814 -3.576,15.645l-56.472,22.649c-11.92,4.768 -21.307,-2.98 -16.986,-16.987l20.115,-64.22c2.384,-7.748 11.92,-11.324 17.582,-4.619l39.337,47.532Z" style="fill:#303577;fill-rule:nonzero;"/><path d="M607.338,456.242c-2.98,-8.493 -1.49,-11.92 2.533,-11.92c1.341,0 2.98,0.745 4.47,2.384l16.688,18.625c13.709,15.199 35.761,6.556 35.761,-10.579c0,-7.599 -4.917,-16.539 -20.413,-16.539l-50.959,0c-26.97,0 -43.36,14.9 -43.36,35.611c0,9.239 7.152,17.434 16.688,17.732c13.559,0.447 17.88,-9.387 17.88,-29.95l0,-6.556c0,-6.556 1.491,-11.473 6.557,-11.473c4.023,0 5.662,3.874 5.811,13.261l1.639,72.863c0.298,15.794 3.278,23.989 17.582,23.989c15.943,0 19.222,-11.473 13.112,-27.715l-23.989,-69.733Z" style="fill:#303577;fill-rule:nonzero;"/></svg>