<?xml version="1.0" encoding="UTF-8" standalone="no"?><!DOCTYPE svg PUBLIC "-//W3C//DTD SVG 1.1//EN" "http://www.w3.org/Graphics/SVG/1.1/DTD/svg11.dtd"><svg width="100%" height="100%" viewBox="0 0 400 600" version="1.1" xmlns="http://www.w3.org/2000/svg" xmlns:xlink="http://www.w3.org/1999/xlink" xml:space="preserve" xmlns:serif="http://www.serif.com/" style="fill-rule:evenodd;clip-rule:evenodd;stroke-linejoin:round;stroke-miterlimit:2;"><g id="Layer1"><path d="M400,10c0,-5.519 -4.481,-10 -10,-10l-380,0c-5.519,0 -10,4.481 -10,10l0,580c0,5.519 4.481,10 10,10l380,0c5.519,0 10,-4.481 10,-10l0,-580Z" style="fill:#ebebeb;"/></g><path d="M138.23,294.823c-8.388,0 -14.618,-2.449 -18.69,-7.347c-4.071,-4.898 -6.107,-12.429 -6.107,-22.593l0,-30.858l15.797,0l0,32.695c0,5.266 0.704,9 2.112,11.205c1.408,2.204 3.704,3.306 6.888,3.306c3.184,0 5.51,-1.117 6.98,-3.352c1.469,-2.235 2.204,-5.955 2.204,-11.159l0,-32.695l15.246,0l0,30.858c0,10.225 -1.99,17.771 -5.97,22.639c-3.98,4.868 -10.133,7.301 -18.46,7.301Z" style="fill:#b32e56;fill-rule:nonzero;"/><path d="M175.517,234.025l16.164,0l13.225,26.634l5.694,13.408l0.368,0c-0.061,-0.673 -0.215,-1.898 -0.459,-3.673c-1.041,-8.45 -1.562,-14.817 -1.562,-19.103l0,-17.266l15.062,0l0,59.696l-16.164,0l-13.225,-26.725l-5.694,-13.317l-0.367,0l0.551,4.867c0.979,7.715 1.469,13.685 1.469,17.909l0,17.266l-15.062,0l0,-59.696Z" style="fill:#b32e56;fill-rule:nonzero;"/><path d="M262.399,294.823c-5.511,0 -10.363,-1.239 -14.557,-3.719c-4.194,-2.48 -7.439,-6.077 -9.735,-10.791c-2.296,-4.715 -3.444,-10.287 -3.444,-16.715c0,-6.429 1.148,-11.955 3.444,-16.578c2.296,-4.622 5.541,-8.128 9.735,-10.515c4.194,-2.388 9.046,-3.582 14.557,-3.582c5.51,0 10.362,1.209 14.556,3.627c4.194,2.419 7.439,5.924 9.735,10.516c2.296,4.592 3.444,10.103 3.444,16.532c0,6.428 -1.148,12 -3.444,16.715c-2.296,4.714 -5.541,8.311 -9.735,10.791c-4.194,2.48 -9.046,3.719 -14.556,3.719Zm0,-13.592c3.551,0 6.367,-1.577 8.449,-4.73c2.082,-3.153 3.122,-7.454 3.122,-12.903c0,-5.388 -1.025,-9.583 -3.076,-12.583c-2.051,-3 -4.883,-4.5 -8.495,-4.5c-3.613,0 -6.445,1.5 -8.496,4.5c-2.051,3 -3.076,7.195 -3.076,12.583c0,5.449 1.04,9.75 3.122,12.903c2.082,3.153 4.898,4.73 8.45,4.73Z" style="fill:#b32e56;fill-rule:nonzero;"/><path d="M140.599,327.508l9.303,12.816c0.715,0.976 1.106,1.886 1.106,2.862c0,1.171 -0.521,2.407 -1.366,3.903l-2.538,4.684c-1.821,3.383 -3.317,3.969 -5.139,3.969c-2.667,0 -4.098,-2.147 -4.879,-5.465l-4.684,-20.622c-0.976,-4.164 -2.602,-5.465 -5.074,-5.465c-2.928,0 -5.465,2.212 -7.547,5.334l-14.833,22.184c-2.081,3.123 -3.187,4.294 -4.879,4.294c-2.342,0 -3.513,-1.366 -3.513,-3.318c0,-1.756 0.911,-3.187 2.472,-5.595l9.433,-14.962c2.408,-3.774 4.034,-7.091 4.034,-9.889c0,-3.903 -2.993,-6.505 -10.344,-6.505c-10.474,0 -16.849,12.36 -16.849,21.338c0,1.691 1.496,2.732 2.667,2.732c2.082,0 3.318,-1.171 3.643,-3.968l1.561,-11.84c0.326,-2.472 1.822,-3.448 3.318,-3.448c1.627,0 2.537,1.431 2.082,3.968l-5.79,29.015c-0.26,1.366 -0.325,2.602 -0.325,3.773c0,6.441 3.903,9.824 9.238,9.824c2.667,0 5.855,-1.432 8.002,-4.424l18.15,-25.437c0.651,-0.911 1.496,-1.756 2.342,-1.756c1.041,0 1.366,0.715 1.366,1.431c0,0.455 -0.065,1.106 -0.325,1.626l-4.879,10.344c-5.335,11.255 -3.318,18.216 6.375,18.216c13.987,0 21.924,-18.867 21.924,-31.552c0,-14.963 -3.058,-19.842 -8.132,-19.842c-5.009,0 -8.262,2.927 -8.262,6.57c0,1.627 0.976,3.318 2.342,5.205Z" style="fill:#303577;fill-rule:nonzero;"/><path d="M203.508,315.733c-5.27,0 -7.677,2.862 -7.677,6.44c0,2.017 1.171,4.099 3.188,6.441l2.797,3.187c1.236,1.367 2.537,2.147 2.082,4.294c-0.39,1.887 -1.822,2.537 -4.489,2.537l-27.648,0c-2.212,0 -3.774,-0.911 -3.774,-2.667c0,-1.236 0.326,-2.212 2.277,-3.318l7.417,-4.228c2.277,-1.302 3.903,-3.774 3.903,-6.701c0,-3.513 -2.537,-5.985 -6.961,-5.985c-6.961,0 -8.783,6.18 -9.303,10.864l-3.448,32.072c-0.65,6.181 2.863,8.458 6.571,8.458c3.903,0 7.676,-2.928 7.676,-6.701c0,-2.082 -1.106,-4.424 -3.187,-6.701c-1.627,-1.756 -3.383,-2.927 -3.383,-4.489c0,-0.976 0.52,-1.691 3.383,-2.277l24.721,-4.879c2.212,-0.52 4.554,-0.39 4.554,1.431c0,1.041 -0.521,2.538 -1.952,3.839l-6.05,5.725c-3.058,2.862 -3.578,5.269 -3.578,7.351c0,3.318 2.342,6.701 6.7,6.701c6.961,0 8.588,-4.229 9.108,-8.913l3.904,-36.171c0.39,-3.903 -3.123,-6.31 -6.831,-6.31Z" style="fill:#303577;fill-rule:nonzero;"/><path d="M241.175,315.733c-15.093,0 -23.03,8.782 -23.03,25.827c0,17.044 7.937,25.567 23.03,25.567c15.158,0 23.095,-8.523 23.095,-25.567c0,-17.045 -7.937,-25.827 -23.095,-25.827Zm18.28,26.412c2.212,2.668 1.562,5.595 -1.561,6.831l-24.656,9.889c-5.204,2.081 -9.303,-1.302 -7.416,-7.417l8.782,-28.039c1.041,-3.383 5.205,-4.944 7.677,-2.016l17.174,20.752Z" style="fill:#303577;fill-rule:nonzero;"/><path d="M292.309,324.58c-1.302,-3.708 -0.651,-5.204 1.105,-5.204c0.586,0 1.302,0.325 1.952,1.041l7.286,8.132c5.985,6.635 15.614,2.862 15.614,-4.619c0,-3.318 -2.147,-7.221 -8.913,-7.221l-22.249,0c-11.775,0 -18.931,6.505 -18.931,15.548c0,4.033 3.123,7.611 7.286,7.741c5.92,0.196 7.807,-4.098 7.807,-13.076l0,-2.862c0,-2.863 0.65,-5.009 2.862,-5.009c1.757,0 2.472,1.691 2.537,5.789l0.716,31.813c0.13,6.896 1.431,10.474 7.677,10.474c6.961,0 8.392,-5.01 5.724,-12.101l-10.473,-30.446Z" style="fill:#303577;fill-rule:nonzero;"/><g id="Layer_1"></g></svg>