<?xml version="1.0" encoding="UTF-8" standalone="no"?><!DOCTYPE svg PUBLIC "-//W3C//DTD SVG 1.1//EN" "http://www.w3.org/Graphics/SVG/1.1/DTD/svg11.dtd"><svg width="100%" height="100%" viewBox="0 0 400 600" version="1.1" xmlns="http://www.w3.org/2000/svg" xmlns:xlink="http://www.w3.org/1999/xlink" xml:space="preserve" xmlns:serif="http://www.serif.com/" style="fill-rule:evenodd;clip-rule:evenodd;stroke-linejoin:round;stroke-miterlimit:2;"><g id="Layer1"><path d="M400,10c0,-5.519 -4.481,-10 -10,-10l-380,0c-5.519,0 -10,4.481 -10,10l0,580c0,5.519 4.481,10 10,10l380,0c5.519,0 10,-4.481 10,-10l0,-580Z" style="fill:#ebebeb;"/></g><rect x="70" y="250" width="260" height="260" style="fill:#b32e56;"/><path d="M185.217,98.617l0,11.766c9.743,0 17.8,7.928 17.8,17.717c0,9.784 -8.057,17.717 -17.8,17.717l0,11.766c16.365,0 29.566,-13.178 29.566,-29.483c0,-16.313 -13.201,-29.483 -29.566,-29.483Zm0,71l0,11.766l11.766,0l0,-11.766l-11.766,0Z" style="fill:#b32e56;fill-rule:nonzero;"/><g id="Layer_1"><g><rect x="24.9" y="44.1" width="95.1" height="76.9" style="fill:none;"/></g></g></svg>