<?xml version="1.0" encoding="UTF-8" standalone="no"?><!DOCTYPE svg PUBLIC "-//W3C//DTD SVG 1.1//EN" "http://www.w3.org/Graphics/SVG/1.1/DTD/svg11.dtd"><svg width="100%" height="100%" viewBox="0 0 400 600" version="1.1" xmlns="http://www.w3.org/2000/svg" xmlns:xlink="http://www.w3.org/1999/xlink" xml:space="preserve" xmlns:serif="http://www.serif.com/" style="fill-rule:evenodd;clip-rule:evenodd;stroke-linejoin:round;stroke-miterlimit:2;"><g id="Layer1"><path d="M400,10c0,-5.519 -4.481,-10 -10,-10l-380,0c-5.519,0 -10,4.481 -10,10l0,580c0,5.519 4.481,10 10,10l380,0c5.519,0 10,-4.481 10,-10l0,-580Z" style="fill:#ebebeb;"/></g><circle cx="200" cy="380" r="130" style="fill:#b32e56;"/><path d="M197.8,74.817c-16.497,0 -29.683,13.178 -29.683,29.583c0,9.726 4.668,18.328 11.828,23.7c-7.16,5.364 -11.828,13.967 -11.828,23.7c0,16.397 13.186,29.583 29.683,29.583c16.497,0 29.683,-13.186 29.683,-29.583c0,-9.733 -4.668,-18.336 -11.828,-23.7c7.16,-5.372 11.828,-13.974 11.828,-23.7c0,-16.405 -13.186,-29.583 -29.683,-29.583Zm0,11.766c9.892,0 17.917,7.98 17.917,17.817c0,9.839 -8.025,17.817 -17.917,17.817c-9.892,0 -17.917,-7.978 -17.917,-17.817c0,-9.837 8.025,-17.817 17.917,-17.817Zm0,47.4c9.892,0 17.917,7.981 17.917,17.817c0,9.839 -8.025,17.817 -17.917,17.817c-9.892,0 -17.917,-7.978 -17.917,-17.817c0,-9.836 8.025,-17.817 17.917,-17.817Z" style="fill:#b32e56;fill-rule:nonzero;"/><g id="Layer_1"><g><rect x="24.9" y="44.1" width="95.1" height="76.9" style="fill:none;"/></g></g></svg>