<?xml version="1.0" encoding="UTF-8" standalone="no"?><!DOCTYPE svg PUBLIC "-//W3C//DTD SVG 1.1//EN" "http://www.w3.org/Graphics/SVG/1.1/DTD/svg11.dtd"><svg width="100%" height="100%" viewBox="0 0 400 600" version="1.1" xmlns="http://www.w3.org/2000/svg" xmlns:xlink="http://www.w3.org/1999/xlink" xml:space="preserve" xmlns:serif="http://www.serif.com/" style="fill-rule:evenodd;clip-rule:evenodd;stroke-linejoin:round;stroke-miterlimit:2;"><g id="Layer1"><path d="M400,10c0,-5.519 -4.481,-10 -10,-10l-380,0c-5.519,0 -10,4.481 -10,10l0,580c0,5.519 4.481,10 10,10l380,0c5.519,0 10,-4.481 10,-10l0,-580Z" style="fill:#ebebeb;"/></g><circle cx="200" cy="300" r="130" style="fill:#b32e56;"/><path d="M200.42,170.001l0.42,0.002l0.42,0.003l0.419,0.005l0.419,0.006l0.419,0.007l0.418,0.009l0.418,0.009l0.418,0.012l0.417,0.012l0.417,0.014l0.417,0.015l0.416,0.017l0.416,0.018l0.416,0.019l0.416,0.02l0.415,0.022l0.414,0.023l0.415,0.024l0.414,0.026l0.413,0.027l0.414,0.028l0.413,0.03l0.412,0.03l0.412,0.032l0.412,0.034l0.412,0.034l0.411,0.036l0.411,0.038l0.41,0.038l0.41,0.04l0.41,0.041l0.409,0.042l0.409,0.044l0.409,0.044l0.408,0.046l0.408,0.048l0.407,0.048l0.407,0.05l0.407,0.051l0.406,0.053l0.406,0.053l0.405,0.055l0.405,0.056l0.405,0.058l0.404,0.058l0.404,0.06l0.404,0.061l0.403,0.062l0.402,0.064l0.403,0.065l0.401,0.066l0.402,0.067l0.401,0.068l0.4,0.07l0.401,0.071l0.399,0.072l0.4,0.073l0.399,0.075l0.398,0.076l0.398,0.077l0.398,0.078l0.397,0.079l0.397,0.081l0.396,0.082l0.396,0.083l0.395,0.084l0.395,0.086l0.395,0.086l0.394,0.088l0.394,0.089l0.393,0.09l0.393,0.092l0.392,0.092l0.392,0.094l0.391,0.095l0.391,0.096l0.39,0.098l0.39,0.098l0.39,0.1l0.389,0.101l0.389,0.102l0.388,0.103l0.387,0.104l0.388,0.106l0.386,0.106l0.386,0.108l0.386,0.109l0.385,0.11l0.385,0.112l0.384,0.112l0.384,0.114l0.383,0.114l0.383,0.116l0.382,0.117l0.382,0.119l0.381,0.119l0.381,0.12l0.38,0.122l0.38,0.123l0.38,0.124l0.378,0.125l0.378,0.126l0.378,0.127l0.377,0.129l0.377,0.129l0.376,0.131l0.376,0.132l0.375,0.132l0.375,0.134l0.374,0.136l0.373,0.136l0.373,0.137l0.373,0.139l0.371,0.139l0.372,0.141l0.371,0.141l0.37,0.143l0.37,0.144l0.369,0.145l0.369,0.146l0.368,0.148l0.367,0.148l0.367,0.149l0.367,0.151l0.366,0.151l0.365,0.153l0.365,0.154l0.364,0.155l0.363,0.155l0.363,0.157l0.363,0.158l0.362,0.16l0.361,0.16l0.361,0.161l0.36,0.162l0.36,0.164l0.359,0.164l0.358,0.165l0.358,0.167l0.357,0.168l0.357,0.168l0.356,0.17l0.355,0.171l0.355,0.171l0.355,0.173l0.353,0.174l0.353,0.175l0.353,0.176l0.352,0.177l0.351,0.178l0.351,0.179l0.35,0.18l0.349,0.181l0.349,0.182l0.348,0.183l0.348,0.184l0.346,0.186l0.347,0.186l0.345,0.187l0.345,0.188l0.345,0.189l0.344,0.191l0.343,0.191l0.342,0.192l0.342,0.193l0.341,0.195l0.341,0.195l0.34,0.196l0.339,0.197l0.339,0.199l0.338,0.199l0.337,0.2l0.337,0.201l0.336,0.203l0.335,0.203l0.335,0.204l0.334,0.205l0.334,0.206l0.332,0.207l0.332,0.208l0.332,0.209l0.33,0.21l0.33,0.211l0.33,0.212l0.328,0.213l0.328,0.214l0.328,0.215l0.326,0.216l0.326,0.216l0.326,0.218l0.324,0.219l0.324,0.219l0.323,0.221l0.323,0.221l0.321,0.223l0.321,0.223l0.321,0.224l0.32,0.226l0.318,0.226l0.319,0.227l0.317,0.228l0.317,0.229l0.316,0.23l0.316,0.231l0.314,0.231l0.314,0.233l0.313,0.234l0.313,0.234l0.312,0.235l0.311,0.237l0.31,0.237l0.31,0.238l0.308,0.239l0.309,0.24l0.307,0.241l0.307,0.242l0.306,0.242l0.305,0.244l0.304,0.244l0.304,0.246l0.303,0.246l0.302,0.247l0.301,0.248l0.301,0.249l0.3,0.25l0.299,0.251l0.298,0.251l0.298,0.253l0.296,0.253l0.297,0.254l0.295,0.255l0.294,0.256l0.294,0.257l0.293,0.257l0.292,0.259l0.292,0.259l0.29,0.26l0.29,0.262l0.289,0.261l0.288,0.263l0.288,0.264l0.286,0.264l0.286,0.266l0.285,0.266l0.285,0.267l0.283,0.268l0.283,0.269l0.282,0.269l0.281,0.27l0.28,0.272l0.279,0.272l0.279,0.273l0.278,0.273l0.277,0.275l0.276,0.275l0.275,0.276l0.275,0.277l0.273,0.278l0.273,0.279l0.272,0.279l0.272,0.28l0.27,0.281l0.269,0.282l0.269,0.283l0.268,0.283l0.267,0.285l0.266,0.285l0.266,0.286l0.264,0.286l0.264,0.288l0.263,0.288l0.261,0.289l0.262,0.29l0.26,0.29l0.259,0.292l0.259,0.292l0.257,0.293l0.257,0.294l0.256,0.294l0.255,0.295l0.254,0.297l0.253,0.296l0.253,0.298l0.251,0.298l0.251,0.299l0.25,0.3l0.249,0.301l0.248,0.301l0.247,0.302l0.246,0.303l0.246,0.304l0.244,0.304l0.244,0.305l0.242,0.306l0.242,0.307l0.241,0.307l0.24,0.309l0.239,0.308l0.238,0.31l0.237,0.31l0.237,0.311l0.235,0.312l0.234,0.313l0.234,0.313l0.233,0.314l0.231,0.314l0.231,0.316l0.23,0.316l0.229,0.317l0.228,0.317l0.227,0.319l0.226,0.318l0.226,0.32l0.224,0.321l0.223,0.321l0.223,0.321l0.221,0.323l0.221,0.323l0.219,0.324l0.219,0.324l0.218,0.326l0.216,0.326l0.216,0.326l0.215,0.328l0.214,0.328l0.213,0.328l0.212,0.33l0.211,0.33l0.21,0.33l0.209,0.332l0.208,0.332l0.207,0.332l0.206,0.334l0.205,0.334l0.204,0.335l0.203,0.335l0.203,0.336l0.201,0.337l0.2,0.337l0.199,0.338l0.199,0.339l0.197,0.339l0.196,0.34l0.195,0.341l0.195,0.341l0.193,0.342l0.192,0.342l0.191,0.343l0.191,0.344l0.189,0.345l0.188,0.345l0.187,0.345l0.186,0.347l0.186,0.346l0.184,0.348l0.183,0.348l0.182,0.349l0.181,0.349l0.18,0.35l0.179,0.351l0.178,0.351l0.177,0.352l0.176,0.353l0.175,0.353l0.174,0.353l0.173,0.355l0.171,0.355l0.171,0.355l0.17,0.356l0.168,0.357l0.168,0.357l0.167,0.358l0.165,0.358l0.164,0.359l0.164,0.36l0.162,0.36l0.161,0.361l0.16,0.361l0.16,0.362l0.158,0.363l0.157,0.363l0.155,0.363l0.155,0.364l0.154,0.365l0.153,0.365l0.151,0.366l0.151,0.367l0.149,0.367l0.148,0.367l0.148,0.368l0.146,0.369l0.145,0.369l0.144,0.37l0.143,0.37l0.141,0.371l0.141,0.372l0.139,0.371l0.139,0.373l0.137,0.373l0.136,0.373l0.136,0.374l0.134,0.375l0.132,0.375l0.132,0.376l0.131,0.376l0.129,0.377l0.129,0.377l0.127,0.378l0.126,0.378l0.125,0.378l0.124,0.38l0.123,0.38l0.122,0.38l0.12,0.381l0.119,0.381l0.119,0.382l0.117,0.382l0.116,0.383l0.114,0.383l0.114,0.384l0.112,0.384l0.112,0.385l0.11,0.385l0.109,0.386l0.108,0.386l0.106,0.386l0.106,0.388l0.104,0.387l0.103,0.388l0.102,0.389l0.101,0.389l0.1,0.39l0.098,0.39l0.098,0.39l0.096,0.391l0.095,0.391l0.094,0.392l0.092,0.392l0.092,0.393l0.09,0.393l0.089,0.394l0.088,0.394l0.086,0.395l0.086,0.395l0.084,0.395l0.083,0.396l0.082,0.396l0.081,0.397l0.079,0.397l0.078,0.398l0.077,0.398l0.076,0.398l0.075,0.399l0.073,0.4l0.072,0.399l0.071,0.401l0.07,0.4l0.068,0.401l0.067,0.402l0.066,0.401l0.065,0.403l0.064,0.402l0.062,0.403l0.061,0.404l0.06,0.404l0.058,0.404l0.058,0.405l0.056,0.405l0.055,0.405l0.053,0.406l0.053,0.406l0.051,0.407l0.05,0.407l0.048,0.407l0.048,0.408l0.046,0.408l0.044,0.409l0.044,0.409l0.042,0.409l0.041,0.41l0.04,0.41l0.038,0.41l0.038,0.411l0.036,0.411l0.034,0.412l0.034,0.412l0.032,0.412l0.03,0.412l0.03,0.413l0.028,0.414l0.027,0.413l0.026,0.414l0.024,0.415l0.023,0.414l0.022,0.415l0.02,0.416l0.019,0.416l0.018,0.416l0.017,0.416l0.015,0.417l0.014,0.417l0.012,0.417l0.012,0.418l0.009,0.418l0.009,0.418l0.007,0.419l0.006,0.419l0.005,0.419l0.003,0.42l0.002,0.42l0.001,0.42l-0.001,0.42l-0.002,0.42l-0.003,0.42l-0.005,0.419l-0.006,0.419l-0.007,0.419l-0.009,0.418l-0.009,0.418l-0.012,0.418l-0.012,0.417l-0.014,0.417l-0.015,0.417l-0.017,0.416l-0.018,0.416l-0.019,0.416l-0.02,0.416l-0.022,0.415l-0.023,0.414l-0.024,0.415l-0.026,0.414l-0.027,0.413l-0.028,0.414l-0.03,0.413l-0.03,0.412l-0.032,0.412l-0.034,0.412l-0.034,0.412l-0.036,0.411l-0.038,0.411l-0.038,0.41l-0.04,0.41l-0.041,0.41l-0.042,0.409l-0.044,0.409l-0.044,0.409l-0.046,0.408l-0.048,0.408l-0.048,0.407l-0.05,0.407l-0.051,0.407l-0.053,0.406l-0.053,0.406l-0.055,0.405l-0.056,0.405l-0.058,0.405l-0.058,0.404l-0.06,0.404l-0.061,0.404l-0.062,0.403l-0.064,0.402l-0.065,0.403l-0.066,0.401l-0.067,0.402l-0.068,0.401l-0.07,0.4l-0.071,0.401l-0.072,0.399l-0.073,0.4l-0.075,0.399l-0.076,0.398l-0.077,0.398l-0.078,0.398l-0.079,0.397l-0.081,0.397l-0.082,0.396l-0.083,0.396l-0.084,0.395l-0.086,0.395l-0.086,0.395l-0.088,0.394l-0.089,0.394l-0.09,0.393l-0.092,0.393l-0.092,0.392l-0.094,0.392l-0.095,0.391l-0.096,0.391l-0.098,0.39l-0.098,0.39l-0.1,0.39l-0.101,0.389l-0.102,0.389l-0.103,0.388l-0.104,0.387l-0.106,0.388l-0.106,0.386l-0.108,0.386l-0.109,0.386l-0.11,0.385l-0.112,0.385l-0.112,0.384l-0.114,0.384l-0.114,0.383l-0.116,0.383l-0.117,0.382l-0.119,0.382l-0.119,0.381l-0.12,0.381l-0.122,0.38l-0.123,0.38l-0.124,0.38l-0.125,0.378l-0.126,0.378l-0.127,0.378l-0.129,0.377l-0.129,0.377l-0.131,0.376l-0.132,0.376l-0.132,0.375l-0.134,0.375l-0.136,0.374l-0.136,0.373l-0.137,0.373l-0.139,0.373l-0.139,0.371l-0.141,0.372l-0.141,0.371l-0.143,0.37l-0.144,0.37l-0.145,0.369l-0.146,0.369l-0.148,0.368l-0.148,0.367l-0.149,0.367l-0.151,0.367l-0.151,0.366l-0.153,0.365l-0.154,0.365l-0.155,0.364l-0.155,0.363l-0.157,0.363l-0.158,0.363l-0.16,0.362l-0.16,0.361l-0.161,0.361l-0.162,0.36l-0.164,0.36l-0.164,0.359l-0.165,0.358l-0.167,0.358l-0.168,0.357l-0.168,0.357l-0.17,0.356l-0.171,0.355l-0.171,0.355l-0.173,0.355l-0.174,0.353l-0.175,0.353l-0.176,0.353l-0.177,0.352l-0.178,0.351l-0.179,0.351l-0.18,0.35l-0.181,0.349l-0.182,0.349l-0.183,0.348l-0.184,0.348l-0.186,0.346l-0.186,0.347l-0.187,0.345l-0.188,0.345l-0.189,0.345l-0.191,0.344l-0.191,0.343l-0.192,0.342l-0.193,0.342l-0.195,0.341l-0.195,0.341l-0.196,0.34l-0.197,0.339l-0.199,0.339l-0.199,0.338l-0.2,0.337l-0.201,0.337l-0.203,0.336l-0.203,0.335l-0.204,0.335l-0.205,0.334l-0.206,0.334l-0.207,0.332l-0.208,0.332l-0.209,0.332l-0.21,0.33l-0.211,0.33l-0.212,0.33l-0.213,0.328l-0.214,0.328l-0.215,0.328l-0.216,0.326l-0.216,0.326l-0.218,0.326l-0.219,0.324l-0.219,0.324l-0.221,0.323l-0.221,0.323l-0.223,0.321l-0.223,0.321l-0.224,0.321l-0.226,0.32l-0.226,0.318l-0.227,0.319l-0.228,0.317l-0.229,0.317l-0.23,0.316l-0.231,0.316l-0.231,0.314l-0.233,0.314l-0.234,0.313l-0.234,0.313l-0.235,0.312l-0.237,0.311l-0.237,0.31l-0.238,0.31l-0.239,0.308l-0.24,0.309l-0.241,0.307l-0.242,0.307l-0.242,0.306l-0.244,0.305l-0.244,0.304l-0.246,0.304l-0.246,0.303l-0.247,0.302l-0.248,0.301l-0.249,0.301l-0.25,0.3l-0.251,0.299l-0.251,0.298l-0.253,0.298l-0.253,0.296l-0.254,0.297l-0.255,0.295l-0.256,0.294l-0.257,0.294l-0.257,0.293l-0.259,0.292l-0.259,0.292l-0.26,0.29l-0.262,0.29l-0.261,0.289l-0.263,0.288l-0.264,0.288l-0.264,0.286l-0.266,0.286l-0.266,0.285l-0.267,0.285l-0.268,0.283l-0.269,0.283l-0.269,0.282l-0.27,0.281l-0.272,0.28l-0.272,0.279l-0.273,0.279l-0.273,0.278l-0.275,0.277l-0.275,0.276l-0.276,0.275l-0.277,0.275l-0.278,0.273l-0.279,0.273l-0.279,0.272l-0.28,0.272l-0.281,0.27l-0.282,0.269l-0.283,0.269l-0.283,0.268l-0.285,0.267l-0.285,0.266l-0.286,0.266l-0.286,0.264l-0.288,0.264l-0.288,0.263l-0.289,0.261l-0.29,0.262l-0.29,0.26l-0.292,0.259l-0.292,0.259l-0.293,0.257l-0.294,0.257l-0.294,0.256l-0.295,0.255l-0.297,0.254l-0.296,0.253l-0.298,0.253l-0.298,0.251l-0.299,0.251l-0.3,0.25l-0.301,0.249l-0.301,0.248l-0.302,0.247l-0.303,0.246l-0.304,0.246l-0.304,0.244l-0.305,0.244l-0.306,0.242l-0.307,0.242l-0.307,0.241l-0.309,0.24l-0.308,0.239l-0.31,0.238l-0.31,0.237l-0.311,0.237l-0.312,0.235l-0.313,0.234l-0.313,0.234l-0.314,0.233l-0.314,0.231l-0.316,0.231l-0.316,0.23l-0.317,0.229l-0.317,0.228l-0.319,0.227l-0.318,0.226l-0.32,0.226l-0.321,0.224l-0.321,0.223l-0.321,0.223l-0.323,0.221l-0.323,0.221l-0.324,0.219l-0.324,0.219l-0.326,0.218l-0.326,0.216l-0.326,0.216l-0.328,0.215l-0.328,0.214l-0.328,0.213l-0.33,0.212l-0.33,0.211l-0.33,0.21l-0.332,0.209l-0.332,0.208l-0.332,0.207l-0.334,0.206l-0.334,0.205l-0.335,0.204l-0.335,0.203l-0.336,0.203l-0.337,0.201l-0.337,0.2l-0.338,0.199l-0.339,0.199l-0.339,0.197l-0.34,0.196l-0.341,0.195l-0.341,0.195l-0.342,0.193l-0.342,0.192l-0.343,0.191l-0.344,0.191l-0.345,0.189l-0.345,0.188l-0.345,0.187l-0.347,0.186l-0.346,0.186l-0.348,0.184l-0.348,0.183l-0.349,0.182l-0.349,0.181l-0.35,0.18l-0.351,0.179l-0.351,0.178l-0.352,0.177l-0.353,0.176l-0.353,0.175l-0.353,0.174l-0.355,0.173l-0.355,0.171l-0.355,0.171l-0.356,0.17l-0.357,0.168l-0.357,0.168l-0.358,0.167l-0.358,0.165l-0.359,0.164l-0.36,0.164l-0.36,0.162l-0.361,0.161l-0.361,0.16l-0.362,0.16l-0.363,0.158l-0.363,0.157l-0.363,0.155l-0.364,0.155l-0.365,0.154l-0.365,0.153l-0.366,0.151l-0.367,0.151l-0.367,0.149l-0.367,0.148l-0.368,0.148l-0.369,0.146l-0.369,0.145l-0.37,0.144l-0.37,0.143l-0.371,0.141l-0.372,0.141l-0.371,0.139l-0.373,0.139l-0.373,0.137l-0.373,0.136l-0.374,0.136l-0.375,0.134l-0.375,0.132l-0.376,0.132l-0.376,0.131l-0.377,0.129l-0.377,0.129l-0.378,0.127l-0.378,0.126l-0.378,0.125l-0.38,0.124l-0.38,0.123l-0.38,0.122l-0.381,0.12l-0.381,0.119l-0.382,0.119l-0.382,0.117l-0.383,0.116l-0.383,0.114l-0.384,0.114l-0.384,0.112l-0.385,0.112l-0.385,0.11l-0.386,0.109l-0.386,0.108l-0.386,0.106l-0.388,0.106l-0.387,0.104l-0.388,0.103l-0.389,0.102l-0.389,0.101l-0.39,0.1l-0.39,0.098l-0.39,0.098l-0.391,0.096l-0.391,0.095l-0.392,0.094l-0.392,0.092l-0.393,0.092l-0.393,0.09l-0.394,0.089l-0.394,0.088l-0.395,0.086l-0.395,0.086l-0.395,0.084l-0.396,0.083l-0.396,0.082l-0.397,0.081l-0.397,0.079l-0.398,0.078l-0.398,0.077l-0.398,0.076l-0.399,0.075l-0.4,0.073l-0.399,0.072l-0.401,0.071l-0.4,0.07l-0.401,0.068l-0.402,0.067l-0.401,0.066l-0.403,0.065l-0.402,0.064l-0.403,0.062l-0.404,0.061l-0.404,0.06l-0.404,0.058l-0.405,0.058l-0.405,0.056l-0.405,0.055l-0.406,0.053l-0.406,0.053l-0.407,0.051l-0.407,0.05l-0.407,0.048l-0.408,0.048l-0.408,0.046l-0.409,0.044l-0.409,0.044l-0.409,0.042l-0.41,0.041l-0.41,0.04l-0.41,0.038l-0.411,0.038l-0.411,0.036l-0.412,0.034l-0.412,0.034l-0.412,0.032l-0.412,0.03l-0.413,0.03l-0.414,0.028l-0.413,0.027l-0.414,0.026l-0.415,0.024l-0.414,0.023l-0.415,0.022l-0.416,0.02l-0.416,0.019l-0.416,0.018l-0.416,0.017l-0.417,0.015l-0.417,0.014l-0.417,0.012l-0.418,0.012l-0.418,0.009l-0.418,0.009l-0.419,0.007l-0.419,0.006l-0.419,0.005l-0.42,0.003l-0.42,0.002l-0.42,0.001l-0.42,-0.001l-0.42,-0.002l-0.42,-0.003l-0.419,-0.005l-0.419,-0.006l-0.419,-0.007l-0.418,-0.009l-0.418,-0.009l-0.418,-0.012l-0.417,-0.012l-0.417,-0.014l-0.417,-0.015l-0.416,-0.017l-0.416,-0.018l-0.416,-0.019l-0.416,-0.02l-0.415,-0.022l-0.414,-0.023l-0.415,-0.024l-0.414,-0.026l-0.413,-0.027l-0.414,-0.028l-0.413,-0.03l-0.412,-0.03l-0.412,-0.032l-0.412,-0.034l-0.412,-0.034l-0.411,-0.036l-0.411,-0.038l-0.41,-0.038l-0.41,-0.04l-0.41,-0.041l-0.409,-0.042l-0.409,-0.044l-0.409,-0.044l-0.408,-0.046l-0.408,-0.048l-0.407,-0.048l-0.407,-0.05l-0.407,-0.051l-0.406,-0.053l-0.406,-0.053l-0.405,-0.055l-0.405,-0.056l-0.405,-0.058l-0.404,-0.058l-0.404,-0.06l-0.404,-0.061l-0.403,-0.062l-0.402,-0.064l-0.403,-0.065l-0.401,-0.066l-0.402,-0.067l-0.401,-0.068l-0.4,-0.07l-0.401,-0.071l-0.399,-0.072l-0.4,-0.073l-0.399,-0.075l-0.398,-0.076l-0.398,-0.077l-0.398,-0.078l-0.397,-0.079l-0.397,-0.081l-0.396,-0.082l-0.396,-0.083l-0.395,-0.084l-0.395,-0.086l-0.395,-0.086l-0.394,-0.088l-0.394,-0.089l-0.393,-0.09l-0.393,-0.092l-0.392,-0.092l-0.392,-0.094l-0.391,-0.095l-0.391,-0.096l-0.39,-0.098l-0.39,-0.098l-0.39,-0.1l-0.389,-0.101l-0.389,-0.102l-0.388,-0.103l-0.387,-0.104l-0.388,-0.106l-0.386,-0.106l-0.386,-0.108l-0.386,-0.109l-0.385,-0.11l-0.385,-0.112l-0.384,-0.112l-0.384,-0.114l-0.383,-0.114l-0.383,-0.116l-0.382,-0.117l-0.382,-0.119l-0.381,-0.119l-0.381,-0.12l-0.38,-0.122l-0.38,-0.123l-0.38,-0.124l-0.378,-0.125l-0.378,-0.126l-0.378,-0.127l-0.377,-0.129l-0.377,-0.129l-0.376,-0.131l-0.376,-0.132l-0.375,-0.132l-0.375,-0.134l-0.374,-0.136l-0.373,-0.136l-0.373,-0.137l-0.373,-0.139l-0.371,-0.139l-0.372,-0.141l-0.371,-0.141l-0.37,-0.143l-0.37,-0.144l-0.369,-0.145l-0.369,-0.146l-0.368,-0.148l-0.367,-0.148l-0.367,-0.149l-0.367,-0.151l-0.366,-0.151l-0.365,-0.153l-0.365,-0.154l-0.364,-0.155l-0.363,-0.155l-0.363,-0.157l-0.363,-0.158l-0.362,-0.16l-0.361,-0.16l-0.361,-0.161l-0.36,-0.162l-0.36,-0.164l-0.359,-0.164l-0.358,-0.165l-0.358,-0.167l-0.357,-0.168l-0.357,-0.168l-0.356,-0.17l-0.355,-0.171l-0.355,-0.171l-0.355,-0.173l-0.353,-0.174l-0.353,-0.175l-0.353,-0.176l-0.352,-0.177l-0.351,-0.178l-0.351,-0.179l-0.35,-0.18l-0.349,-0.181l-0.349,-0.182l-0.348,-0.183l-0.348,-0.184l-0.346,-0.186l-0.347,-0.186l-0.345,-0.187l-0.345,-0.188l-0.345,-0.189l-0.344,-0.191l-0.343,-0.191l-0.342,-0.192l-0.342,-0.193l-0.341,-0.195l-0.341,-0.195l-0.34,-0.196l-0.339,-0.197l-0.339,-0.199l-0.338,-0.199l-0.337,-0.2l-0.337,-0.201l-0.336,-0.203l-0.335,-0.203l-0.335,-0.204l-0.334,-0.205l-0.334,-0.206l-0.332,-0.207l-0.332,-0.208l-0.332,-0.209l-0.33,-0.21l-0.33,-0.211l-0.33,-0.212l-0.328,-0.213l-0.328,-0.214l-0.328,-0.215l-0.326,-0.216l-0.326,-0.216l-0.326,-0.218l-0.324,-0.219l-0.324,-0.219l-0.323,-0.221l-0.323,-0.221l-0.321,-0.223l-0.321,-0.223l-0.321,-0.224l-0.32,-0.226l-0.318,-0.226l-0.319,-0.227l-0.317,-0.228l-0.317,-0.229l-0.316,-0.23l-0.316,-0.231l-0.314,-0.231l-0.314,-0.233l-0.313,-0.234l-0.313,-0.234l-0.312,-0.235l-0.311,-0.237l-0.31,-0.237l-0.31,-0.238l-0.308,-0.239l-0.309,-0.24l-0.307,-0.241l-0.307,-0.242l-0.306,-0.242l-0.305,-0.244l-0.304,-0.244l-0.304,-0.246l-0.303,-0.246l-0.302,-0.247l-0.301,-0.248l-0.301,-0.249l-0.3,-0.25l-0.299,-0.251l-0.298,-0.251l-0.298,-0.253l-0.296,-0.253l-0.297,-0.254l-0.295,-0.255l-0.294,-0.256l-0.294,-0.257l-0.293,-0.257l-0.292,-0.259l-0.292,-0.259l-0.29,-0.26l-0.29,-0.262l-0.289,-0.261l-0.288,-0.263l-0.288,-0.264l-0.286,-0.264l-0.286,-0.266l-0.285,-0.266l-0.285,-0.267l-0.283,-0.268l-0.283,-0.269l-0.282,-0.269l-0.281,-0.27l-0.28,-0.272l-0.279,-0.272l-0.279,-0.273l-0.278,-0.273l-0.277,-0.275l-0.276,-0.275l-0.275,-0.276l-0.275,-0.277l-0.273,-0.278l-0.273,-0.279l-0.272,-0.279l-0.272,-0.28l-0.27,-0.281l-0.269,-0.282l-0.269,-0.283l-0.268,-0.283l-0.267,-0.285l-0.266,-0.285l-0.266,-0.286l-0.264,-0.286l-0.264,-0.288l-0.263,-0.288l-0.261,-0.289l-0.262,-0.29l-0.26,-0.29l-0.259,-0.292l-0.259,-0.292l-0.257,-0.293l-0.257,-0.294l-0.256,-0.294l-0.255,-0.295l-0.254,-0.297l-0.253,-0.296l-0.253,-0.298l-0.251,-0.298l-0.251,-0.299l-0.25,-0.3l-0.249,-0.301l-0.248,-0.301l-0.247,-0.302l-0.246,-0.303l-0.246,-0.304l-0.244,-0.304l-0.244,-0.305l-0.242,-0.306l-0.242,-0.307l-0.241,-0.307l-0.24,-0.309l-0.239,-0.308l-0.238,-0.31l-0.237,-0.31l-0.237,-0.311l-0.235,-0.312l-0.234,-0.313l-0.234,-0.313l-0.233,-0.314l-0.231,-0.314l-0.231,-0.316l-0.23,-0.316l-0.229,-0.317l-0.228,-0.317l-0.227,-0.319l-0.226,-0.318l-0.226,-0.32l-0.224,-0.321l-0.223,-0.321l-0.223,-0.321l-0.221,-0.323l-0.221,-0.323l-0.219,-0.324l-0.219,-0.324l-0.218,-0.326l-0.216,-0.326l-0.216,-0.326l-0.215,-0.328l-0.214,-0.328l-0.213,-0.328l-0.212,-0.33l-0.211,-0.33l-0.21,-0.33l-0.209,-0.332l-0.208,-0.332l-0.207,-0.332l-0.206,-0.334l-0.205,-0.334l-0.204,-0.335l-0.203,-0.335l-0.203,-0.336l-0.201,-0.337l-0.2,-0.337l-0.199,-0.338l-0.199,-0.339l-0.197,-0.339l-0.196,-0.34l-0.195,-0.341l-0.195,-0.341l-0.193,-0.342l-0.192,-0.342l-0.191,-0.343l-0.191,-0.344l-0.189,-0.345l-0.188,-0.345l-0.187,-0.345l-0.186,-0.347l-0.186,-0.346l-0.184,-0.348l-0.183,-0.348l-0.182,-0.349l-0.181,-0.349l-0.18,-0.35l-0.179,-0.351l-0.178,-0.351l-0.177,-0.352l-0.176,-0.353l-0.175,-0.353l-0.174,-0.353l-0.173,-0.355l-0.171,-0.355l-0.171,-0.355l-0.17,-0.356l-0.168,-0.357l-0.168,-0.357l-0.167,-0.358l-0.165,-0.358l-0.164,-0.359l-0.164,-0.36l-0.162,-0.36l-0.161,-0.361l-0.16,-0.361l-0.16,-0.362l-0.158,-0.363l-0.157,-0.363l-0.155,-0.363l-0.155,-0.364l-0.154,-0.365l-0.153,-0.365l-0.151,-0.366l-0.151,-0.367l-0.149,-0.367l-0.148,-0.367l-0.148,-0.368l-0.146,-0.369l-0.145,-0.369l-0.144,-0.37l-0.143,-0.37l-0.141,-0.371l-0.141,-0.372l-0.139,-0.371l-0.139,-0.373l-0.137,-0.373l-0.136,-0.373l-0.136,-0.374l-0.134,-0.375l-0.132,-0.375l-0.132,-0.376l-0.131,-0.376l-0.129,-0.377l-0.129,-0.377l-0.127,-0.378l-0.126,-0.378l-0.125,-0.378l-0.124,-0.38l-0.123,-0.38l-0.122,-0.38l-0.12,-0.381l-0.119,-0.381l-0.119,-0.382l-0.117,-0.382l-0.116,-0.383l-0.114,-0.383l-0.114,-0.384l-0.112,-0.384l-0.112,-0.385l-0.11,-0.385l-0.109,-0.386l-0.108,-0.386l-0.106,-0.386l-0.106,-0.388l-0.104,-0.387l-0.103,-0.388l-0.102,-0.389l-0.101,-0.389l-0.1,-0.39l-0.098,-0.39l-0.098,-0.39l-0.096,-0.391l-0.095,-0.391l-0.094,-0.392l-0.092,-0.392l-0.092,-0.393l-0.09,-0.393l-0.089,-0.394l-0.088,-0.394l-0.086,-0.395l-0.086,-0.395l-0.084,-0.395l-0.083,-0.396l-0.082,-0.396l-0.081,-0.397l-0.079,-0.397l-0.078,-0.398l-0.077,-0.398l-0.076,-0.398l-0.075,-0.399l-0.073,-0.4l-0.072,-0.399l-0.071,-0.401l-0.07,-0.4l-0.068,-0.401l-0.067,-0.402l-0.066,-0.401l-0.065,-0.403l-0.064,-0.402l-0.062,-0.403l-0.061,-0.404l-0.06,-0.404l-0.058,-0.404l-0.058,-0.405l-0.056,-0.405l-0.055,-0.405l-0.053,-0.406l-0.053,-0.406l-0.051,-0.407l-0.05,-0.407l-0.048,-0.407l-0.048,-0.408l-0.046,-0.408l-0.044,-0.409l-0.044,-0.409l-0.042,-0.409l-0.041,-0.41l-0.04,-0.41l-0.038,-0.41l-0.038,-0.411l-0.036,-0.411l-0.034,-0.412l-0.034,-0.412l-0.032,-0.412l-0.03,-0.412l-0.03,-0.413l-0.028,-0.414l-0.027,-0.413l-0.026,-0.414l-0.024,-0.415l-0.023,-0.414l-0.022,-0.415l-0.02,-0.416l-0.019,-0.416l-0.018,-0.416l-0.017,-0.416l-0.015,-0.417l-0.014,-0.417l-0.012,-0.417l-0.012,-0.418l-0.009,-0.418l-0.009,-0.418l-0.007,-0.419l-0.006,-0.419l-0.005,-0.419l-0.003,-0.42l-0.002,-0.42l-0.001,-0.42l0.001,-0.42l0.002,-0.42l0.003,-0.42l0.005,-0.419l0.006,-0.419l0.007,-0.419l0.009,-0.418l0.009,-0.418l0.012,-0.418l0.012,-0.417l0.014,-0.417l0.015,-0.417l0.017,-0.416l0.018,-0.416l0.019,-0.416l0.02,-0.416l0.022,-0.415l0.023,-0.414l0.024,-0.415l0.026,-0.414l0.027,-0.413l0.028,-0.414l0.03,-0.413l0.03,-0.412l0.032,-0.412l0.034,-0.412l0.034,-0.412l0.036,-0.411l0.038,-0.411l0.038,-0.41l0.04,-0.41l0.041,-0.41l0.042,-0.409l0.044,-0.409l0.044,-0.409l0.046,-0.408l0.048,-0.408l0.048,-0.407l0.05,-0.407l0.051,-0.407l0.053,-0.406l0.053,-0.406l0.055,-0.405l0.056,-0.405l0.058,-0.405l0.058,-0.404l0.06,-0.404l0.061,-0.404l0.062,-0.403l0.064,-0.402l0.065,-0.403l0.066,-0.401l0.067,-0.402l0.068,-0.401l0.07,-0.4l0.071,-0.401l0.072,-0.399l0.073,-0.4l0.075,-0.399l0.076,-0.398l0.077,-0.398l0.078,-0.398l0.079,-0.397l0.081,-0.397l0.082,-0.396l0.083,-0.396l0.084,-0.395l0.086,-0.395l0.086,-0.395l0.088,-0.394l0.089,-0.394l0.09,-0.393l0.092,-0.393l0.092,-0.392l0.094,-0.392l0.095,-0.391l0.096,-0.391l0.098,-0.39l0.098,-0.39l0.1,-0.39l0.101,-0.389l0.102,-0.389l0.103,-0.388l0.104,-0.387l0.106,-0.388l0.106,-0.386l0.108,-0.386l0.109,-0.386l0.11,-0.385l0.112,-0.385l0.112,-0.384l0.114,-0.384l0.114,-0.383l0.116,-0.383l0.117,-0.382l0.119,-0.382l0.119,-0.381l0.12,-0.381l0.122,-0.38l0.123,-0.38l0.124,-0.38l0.125,-0.378l0.126,-0.378l0.127,-0.378l0.129,-0.377l0.129,-0.377l0.131,-0.376l0.132,-0.376l0.132,-0.375l0.134,-0.375l0.136,-0.374l0.136,-0.373l0.137,-0.373l0.139,-0.373l0.139,-0.371l0.141,-0.372l0.141,-0.371l0.143,-0.37l0.144,-0.37l0.145,-0.369l0.146,-0.369l0.148,-0.368l0.148,-0.367l0.149,-0.367l0.151,-0.367l0.151,-0.366l0.153,-0.365l0.154,-0.365l0.155,-0.364l0.155,-0.363l0.157,-0.363l0.158,-0.363l0.16,-0.362l0.16,-0.361l0.161,-0.361l0.162,-0.36l0.164,-0.36l0.164,-0.359l0.165,-0.358l0.167,-0.358l0.168,-0.357l0.168,-0.357l0.17,-0.356l0.171,-0.355l0.171,-0.355l0.173,-0.355l0.174,-0.353l0.175,-0.353l0.176,-0.353l0.177,-0.352l0.178,-0.351l0.179,-0.351l0.18,-0.35l0.181,-0.349l0.182,-0.349l0.183,-0.348l0.184,-0.348l0.186,-0.346l0.186,-0.347l0.187,-0.345l0.188,-0.345l0.189,-0.345l0.191,-0.344l0.191,-0.343l0.192,-0.342l0.193,-0.342l0.195,-0.341l0.195,-0.341l0.196,-0.34l0.197,-0.339l0.199,-0.339l0.199,-0.338l0.2,-0.337l0.201,-0.337l0.203,-0.336l0.203,-0.335l0.204,-0.335l0.205,-0.334l0.206,-0.334l0.207,-0.332l0.208,-0.332l0.209,-0.332l0.21,-0.33l0.211,-0.33l0.212,-0.33l0.213,-0.328l0.214,-0.328l0.215,-0.328l0.216,-0.326l0.216,-0.326l0.218,-0.326l0.219,-0.324l0.219,-0.324l0.221,-0.323l0.221,-0.323l0.223,-0.321l0.223,-0.321l0.224,-0.321l0.226,-0.32l0.226,-0.318l0.227,-0.319l0.228,-0.317l0.229,-0.317l0.23,-0.316l0.231,-0.316l0.231,-0.314l0.233,-0.314l0.234,-0.313l0.234,-0.313l0.235,-0.312l0.237,-0.311l0.237,-0.31l0.238,-0.31l0.239,-0.308l0.24,-0.309l0.241,-0.307l0.242,-0.307l0.242,-0.306l0.244,-0.305l0.244,-0.304l0.246,-0.304l0.246,-0.303l0.247,-0.302l0.248,-0.301l0.249,-0.301l0.25,-0.3l0.251,-0.299l0.251,-0.298l0.253,-0.298l0.253,-0.296l0.254,-0.297l0.255,-0.295l0.256,-0.294l0.257,-0.294l0.257,-0.293l0.259,-0.292l0.259,-0.292l0.26,-0.29l0.262,-0.29l0.261,-0.289l0.263,-0.288l0.264,-0.288l0.264,-0.286l0.266,-0.286l0.266,-0.285l0.267,-0.285l0.268,-0.283l0.269,-0.283l0.269,-0.282l0.27,-0.281l0.272,-0.28l0.272,-0.279l0.273,-0.279l0.273,-0.278l0.275,-0.277l0.275,-0.276l0.276,-0.275l0.277,-0.275l0.278,-0.273l0.279,-0.273l0.279,-0.272l0.28,-0.272l0.281,-0.27l0.282,-0.269l0.283,-0.269l0.283,-0.268l0.285,-0.267l0.285,-0.266l0.286,-0.266l0.286,-0.264l0.288,-0.264l0.288,-0.263l0.289,-0.261l0.29,-0.262l0.29,-0.26l0.292,-0.259l0.292,-0.259l0.293,-0.257l0.294,-0.257l0.294,-0.256l0.295,-0.255l0.297,-0.254l0.296,-0.253l0.298,-0.253l0.298,-0.251l0.299,-0.251l0.3,-0.25l0.301,-0.249l0.301,-0.248l0.302,-0.247l0.303,-0.246l0.304,-0.246l0.304,-0.244l0.305,-0.244l0.306,-0.242l0.307,-0.242l0.307,-0.241l0.309,-0.24l0.308,-0.239l0.31,-0.238l0.31,-0.237l0.311,-0.237l0.312,-0.235l0.313,-0.234l0.313,-0.234l0.314,-0.233l0.314,-0.231l0.316,-0.231l0.316,-0.23l0.317,-0.229l0.317,-0.228l0.319,-0.227l0.318,-0.226l0.32,-0.226l0.321,-0.224l0.321,-0.223l0.321,-0.223l0.323,-0.221l0.323,-0.221l0.324,-0.219l0.324,-0.219l0.326,-0.218l0.326,-0.216l0.326,-0.216l0.328,-0.215l0.328,-0.214l0.328,-0.213l0.33,-0.212l0.33,-0.211l0.33,-0.21l0.332,-0.209l0.332,-0.208l0.332,-0.207l0.334,-0.206l0.334,-0.205l0.335,-0.204l0.335,-0.203l0.336,-0.203l0.337,-0.201l0.337,-0.2l0.338,-0.199l0.339,-0.199l0.339,-0.197l0.34,-0.196l0.341,-0.195l0.341,-0.195l0.342,-0.193l0.342,-0.192l0.343,-0.191l0.344,-0.191l0.345,-0.189l0.345,-0.188l0.345,-0.187l0.347,-0.186l0.346,-0.186l0.348,-0.184l0.348,-0.183l0.349,-0.182l0.349,-0.181l0.35,-0.18l0.351,-0.179l0.351,-0.178l0.352,-0.177l0.353,-0.176l0.353,-0.175l0.353,-0.174l0.355,-0.173l0.355,-0.171l0.355,-0.171l0.356,-0.17l0.357,-0.168l0.357,-0.168l0.358,-0.167l0.358,-0.165l0.359,-0.164l0.36,-0.164l0.36,-0.162l0.361,-0.161l0.361,-0.16l0.362,-0.16l0.363,-0.158l0.363,-0.157l0.363,-0.155l0.364,-0.155l0.365,-0.154l0.365,-0.153l0.366,-0.151l0.367,-0.151l0.367,-0.149l0.367,-0.148l0.368,-0.148l0.369,-0.146l0.369,-0.145l0.37,-0.144l0.37,-0.143l0.371,-0.141l0.372,-0.141l0.371,-0.139l0.373,-0.139l0.373,-0.137l0.373,-0.136l0.374,-0.136l0.375,-0.134l0.375,-0.132l0.376,-0.132l0.376,-0.131l0.377,-0.129l0.377,-0.129l0.378,-0.127l0.378,-0.126l0.378,-0.125l0.38,-0.124l0.38,-0.123l0.38,-0.122l0.381,-0.12l0.381,-0.119l0.382,-0.119l0.382,-0.117l0.383,-0.116l0.383,-0.114l0.384,-0.114l0.384,-0.112l0.385,-0.112l0.385,-0.11l0.386,-0.109l0.386,-0.108l0.386,-0.106l0.388,-0.106l0.387,-0.104l0.388,-0.103l0.389,-0.102l0.389,-0.101l0.39,-0.1l0.39,-0.098l0.39,-0.098l0.391,-0.096l0.391,-0.095l0.392,-0.094l0.392,-0.092l0.393,-0.092l0.393,-0.09l0.394,-0.089l0.394,-0.088l0.395,-0.086l0.395,-0.086l0.395,-0.084l0.396,-0.083l0.396,-0.082l0.397,-0.081l0.397,-0.079l0.398,-0.078l0.398,-0.077l0.398,-0.076l0.399,-0.075l0.4,-0.073l0.399,-0.072l0.401,-0.071l0.4,-0.07l0.401,-0.068l0.402,-0.067l0.401,-0.066l0.403,-0.065l0.402,-0.064l0.403,-0.062l0.404,-0.061l0.404,-0.06l0.404,-0.058l0.405,-0.058l0.405,-0.056l0.405,-0.055l0.406,-0.053l0.406,-0.053l0.407,-0.051l0.407,-0.05l0.407,-0.048l0.408,-0.048l0.408,-0.046l0.409,-0.044l0.409,-0.044l0.409,-0.042l0.41,-0.041l0.41,-0.04l0.41,-0.038l0.411,-0.038l0.411,-0.036l0.412,-0.034l0.412,-0.034l0.412,-0.032l0.412,-0.03l0.413,-0.03l0.414,-0.028l0.413,-0.027l0.414,-0.026l0.415,-0.024l0.414,-0.023l0.415,-0.022l0.416,-0.02l0.416,-0.019l0.416,-0.018l0.416,-0.017l0.417,-0.015l0.417,-0.014l0.417,-0.012l0.418,-0.012l0.418,-0.009l0.418,-0.009l0.419,-0.007l0.419,-0.006l0.419,-0.005l0.42,-0.003l0.42,-0.002l0.42,-0.001l0.42,0.001Zm-0.832,2.6l-0.412,0.002l-0.411,0.003l-0.411,0.004l-0.411,0.006l-0.41,0.007l-0.41,0.009l-0.41,0.01l-0.41,0.011l-0.409,0.012l-0.409,0.014l-0.408,0.015l-0.408,0.016l-0.408,0.017l-0.408,0.019l-0.407,0.02l-0.407,0.021l-0.406,0.023l-0.406,0.024l-0.406,0.025l-0.405,0.026l-0.405,0.028l-0.405,0.029l-0.405,0.03l-0.404,0.031l-0.403,0.033l-0.404,0.034l-0.403,0.035l-0.402,0.037l-0.402,0.037l-0.402,0.039l-0.402,0.04l-0.401,0.042l-0.401,0.042l-0.4,0.044l-0.4,0.046l-0.4,0.046l-0.399,0.048l-0.399,0.048l-0.398,0.05l-0.398,0.052l-0.398,0.052l-0.398,0.054l-0.397,0.055l-0.396,0.056l-0.396,0.058l-0.396,0.058l-0.395,0.06l-0.395,0.061l-0.395,0.062l-0.394,0.064l-0.394,0.065l-0.393,0.066l-0.393,0.067l-0.393,0.068l-0.392,0.069l-0.392,0.071l-0.391,0.072l-0.391,0.073l-0.39,0.074l-0.39,0.076l-0.39,0.076l-0.389,0.078l-0.389,0.079l-0.388,0.08l-0.388,0.082l-0.388,0.082l-0.387,0.084l-0.386,0.085l-0.387,0.086l-0.385,0.087l-0.385,0.089l-0.385,0.089l-0.385,0.091l-0.384,0.092l-0.383,0.093l-0.383,0.094l-0.383,0.095l-0.382,0.097l-0.382,0.098l-0.381,0.098l-0.38,0.1l-0.381,0.101l-0.38,0.103l-0.379,0.103l-0.379,0.105l-0.378,0.105l-0.378,0.107l-0.378,0.108l-0.377,0.109l-0.376,0.11l-0.376,0.112l-0.376,0.112l-0.375,0.114l-0.374,0.114l-0.374,0.116l-0.374,0.117l-0.373,0.118l-0.373,0.119l-0.372,0.121l-0.371,0.121l-0.371,0.122l-0.371,0.124l-0.37,0.125l-0.37,0.126l-0.369,0.127l-0.368,0.128l-0.368,0.129l-0.368,0.13l-0.367,0.131l-0.367,0.133l-0.366,0.133l-0.365,0.135l-0.365,0.135l-0.364,0.137l-0.364,0.138l-0.364,0.139l-0.362,0.14l-0.363,0.141l-0.361,0.142l-0.362,0.143l-0.36,0.144l-0.361,0.146l-0.359,0.146l-0.359,0.147l-0.359,0.149l-0.358,0.15l-0.357,0.15l-0.357,0.152l-0.356,0.153l-0.356,0.153l-0.355,0.155l-0.355,0.156l-0.354,0.157l-0.353,0.158l-0.353,0.159l-0.353,0.16l-0.352,0.161l-0.351,0.162l-0.35,0.164l-0.351,0.164l-0.349,0.165l-0.349,0.166l-0.348,0.168l-0.348,0.168l-0.347,0.169l-0.347,0.171l-0.346,0.171l-0.345,0.172l-0.345,0.174l-0.344,0.174l-0.344,0.176l-0.343,0.176l-0.342,0.178l-0.342,0.178l-0.341,0.18l-0.341,0.18l-0.34,0.181l-0.339,0.183l-0.339,0.183l-0.338,0.185l-0.337,0.185l-0.337,0.187l-0.337,0.187l-0.335,0.189l-0.335,0.189l-0.335,0.19l-0.334,0.192l-0.333,0.192l-0.332,0.193l-0.332,0.195l-0.331,0.195l-0.331,0.196l-0.33,0.197l-0.329,0.198l-0.329,0.199l-0.328,0.201l-0.327,0.201l-0.327,0.202l-0.326,0.203l-0.325,0.203l-0.325,0.205l-0.324,0.206l-0.324,0.207l-0.323,0.208l-0.322,0.208l-0.321,0.21l-0.321,0.21l-0.32,0.212l-0.319,0.212l-0.319,0.214l-0.318,0.214l-0.318,0.215l-0.316,0.216l-0.316,0.217l-0.316,0.218l-0.314,0.219l-0.314,0.22l-0.314,0.221l-0.312,0.221l-0.312,0.223l-0.311,0.223l-0.311,0.225l-0.31,0.225l-0.309,0.226l-0.308,0.228l-0.308,0.228l-0.307,0.228l-0.306,0.23l-0.306,0.231l-0.305,0.232l-0.304,0.232l-0.303,0.234l-0.303,0.234l-0.302,0.235l-0.301,0.236l-0.301,0.237l-0.3,0.238l-0.299,0.239l-0.298,0.239l-0.298,0.241l-0.297,0.241l-0.296,0.242l-0.295,0.243l-0.295,0.244l-0.294,0.245l-0.293,0.246l-0.292,0.246l-0.292,0.248l-0.291,0.248l-0.29,0.249l-0.289,0.25l-0.289,0.251l-0.288,0.252l-0.287,0.252l-0.286,0.254l-0.286,0.254l-0.285,0.255l-0.284,0.256l-0.283,0.256l-0.283,0.258l-0.281,0.258l-0.281,0.26l-0.281,0.26l-0.279,0.261l-0.279,0.261l-0.277,0.263l-0.278,0.263l-0.276,0.264l-0.275,0.265l-0.275,0.266l-0.274,0.267l-0.273,0.267l-0.272,0.269l-0.272,0.269l-0.27,0.27l-0.27,0.27l-0.269,0.272l-0.269,0.272l-0.267,0.273l-0.267,0.274l-0.266,0.275l-0.265,0.275l-0.264,0.276l-0.263,0.278l-0.263,0.277l-0.261,0.279l-0.261,0.279l-0.26,0.281l-0.26,0.281l-0.258,0.281l-0.258,0.283l-0.256,0.283l-0.256,0.284l-0.255,0.285l-0.254,0.286l-0.254,0.286l-0.252,0.287l-0.252,0.288l-0.251,0.289l-0.25,0.289l-0.249,0.29l-0.248,0.291l-0.248,0.292l-0.246,0.292l-0.246,0.293l-0.245,0.294l-0.244,0.295l-0.243,0.295l-0.242,0.297l-0.241,0.296l-0.241,0.298l-0.239,0.298l-0.239,0.299l-0.238,0.3l-0.237,0.301l-0.236,0.301l-0.235,0.302l-0.234,0.303l-0.234,0.303l-0.232,0.304l-0.232,0.305l-0.231,0.306l-0.23,0.306l-0.228,0.307l-0.229,0.308l-0.227,0.308l-0.226,0.309l-0.225,0.31l-0.225,0.311l-0.223,0.311l-0.223,0.312l-0.221,0.312l-0.221,0.314l-0.22,0.314l-0.219,0.314l-0.218,0.316l-0.217,0.316l-0.216,0.316l-0.215,0.318l-0.214,0.318l-0.214,0.319l-0.212,0.319l-0.212,0.32l-0.21,0.321l-0.21,0.321l-0.208,0.322l-0.208,0.323l-0.207,0.324l-0.206,0.324l-0.205,0.325l-0.204,0.325l-0.202,0.326l-0.202,0.327l-0.201,0.327l-0.201,0.328l-0.199,0.329l-0.198,0.329l-0.197,0.33l-0.196,0.331l-0.195,0.331l-0.195,0.332l-0.193,0.332l-0.192,0.333l-0.192,0.334l-0.19,0.335l-0.189,0.335l-0.189,0.335l-0.187,0.337l-0.187,0.337l-0.185,0.337l-0.185,0.338l-0.183,0.339l-0.183,0.339l-0.181,0.34l-0.18,0.341l-0.18,0.341l-0.178,0.342l-0.178,0.342l-0.176,0.343l-0.176,0.344l-0.174,0.344l-0.174,0.345l-0.172,0.345l-0.171,0.346l-0.171,0.347l-0.169,0.347l-0.168,0.348l-0.168,0.348l-0.166,0.349l-0.165,0.35l-0.164,0.35l-0.164,0.35l-0.162,0.351l-0.161,0.352l-0.16,0.353l-0.159,0.353l-0.158,0.353l-0.157,0.354l-0.156,0.355l-0.155,0.355l-0.153,0.356l-0.153,0.356l-0.152,0.357l-0.15,0.357l-0.15,0.358l-0.149,0.359l-0.147,0.359l-0.146,0.359l-0.146,0.361l-0.144,0.36l-0.143,0.361l-0.142,0.362l-0.141,0.363l-0.14,0.362l-0.139,0.364l-0.138,0.364l-0.137,0.364l-0.135,0.365l-0.135,0.365l-0.133,0.366l-0.133,0.367l-0.131,0.367l-0.13,0.368l-0.129,0.368l-0.128,0.368l-0.127,0.369l-0.126,0.37l-0.125,0.37l-0.124,0.371l-0.122,0.371l-0.121,0.371l-0.121,0.372l-0.119,0.373l-0.118,0.373l-0.117,0.374l-0.116,0.374l-0.114,0.374l-0.114,0.375l-0.112,0.376l-0.112,0.376l-0.11,0.376l-0.109,0.377l-0.108,0.378l-0.107,0.378l-0.105,0.378l-0.105,0.379l-0.103,0.379l-0.103,0.38l-0.101,0.381l-0.1,0.38l-0.098,0.381l-0.098,0.382l-0.097,0.382l-0.095,0.383l-0.094,0.383l-0.093,0.383l-0.092,0.384l-0.091,0.385l-0.089,0.385l-0.089,0.385l-0.087,0.386l-0.086,0.386l-0.085,0.386l-0.084,0.387l-0.082,0.388l-0.082,0.388l-0.08,0.388l-0.079,0.389l-0.078,0.389l-0.076,0.39l-0.076,0.39l-0.074,0.39l-0.073,0.391l-0.072,0.391l-0.071,0.392l-0.069,0.392l-0.068,0.393l-0.067,0.393l-0.066,0.393l-0.065,0.394l-0.064,0.394l-0.062,0.395l-0.061,0.395l-0.06,0.395l-0.058,0.396l-0.058,0.396l-0.056,0.396l-0.055,0.397l-0.054,0.398l-0.052,0.397l-0.052,0.399l-0.05,0.398l-0.048,0.399l-0.048,0.399l-0.046,0.4l-0.046,0.4l-0.044,0.4l-0.042,0.401l-0.042,0.401l-0.04,0.402l-0.039,0.402l-0.037,0.402l-0.037,0.402l-0.035,0.403l-0.034,0.404l-0.033,0.403l-0.031,0.404l-0.03,0.405l-0.029,0.405l-0.028,0.405l-0.026,0.405l-0.025,0.406l-0.024,0.406l-0.023,0.406l-0.021,0.407l-0.02,0.407l-0.019,0.408l-0.017,0.408l-0.016,0.408l-0.015,0.408l-0.014,0.409l-0.012,0.409l-0.011,0.41l-0.01,0.41l-0.009,0.41l-0.007,0.41l-0.006,0.411l-0.004,0.411l-0.003,0.411l-0.002,0.412l-0.001,0.412l0.001,0.412l0.002,0.412l0.003,0.411l0.004,0.411l0.006,0.411l0.007,0.41l0.009,0.41l0.01,0.41l0.011,0.41l0.012,0.409l0.014,0.409l0.015,0.408l0.016,0.408l0.017,0.408l0.019,0.408l0.02,0.407l0.021,0.407l0.023,0.406l0.024,0.406l0.025,0.406l0.026,0.405l0.028,0.405l0.029,0.405l0.03,0.405l0.031,0.404l0.033,0.403l0.034,0.404l0.035,0.403l0.037,0.402l0.037,0.402l0.039,0.402l0.04,0.402l0.042,0.401l0.042,0.401l0.044,0.4l0.046,0.4l0.046,0.4l0.048,0.399l0.048,0.399l0.05,0.398l0.052,0.399l0.052,0.397l0.054,0.398l0.055,0.397l0.056,0.396l0.058,0.396l0.058,0.396l0.06,0.395l0.061,0.395l0.062,0.395l0.064,0.394l0.065,0.394l0.066,0.393l0.067,0.393l0.068,0.393l0.069,0.392l0.071,0.392l0.072,0.391l0.073,0.391l0.074,0.39l0.076,0.39l0.076,0.39l0.078,0.389l0.079,0.389l0.08,0.388l0.082,0.388l0.082,0.388l0.084,0.387l0.085,0.386l0.086,0.386l0.087,0.386l0.089,0.385l0.089,0.385l0.091,0.385l0.092,0.384l0.093,0.383l0.094,0.383l0.095,0.383l0.097,0.382l0.098,0.382l0.098,0.381l0.1,0.38l0.101,0.381l0.103,0.38l0.103,0.379l0.105,0.379l0.105,0.378l0.107,0.378l0.108,0.378l0.109,0.377l0.11,0.376l0.112,0.376l0.112,0.376l0.114,0.375l0.114,0.374l0.116,0.374l0.117,0.374l0.118,0.373l0.119,0.373l0.121,0.372l0.121,0.371l0.122,0.371l0.124,0.371l0.125,0.37l0.126,0.37l0.127,0.369l0.128,0.368l0.129,0.368l0.13,0.368l0.131,0.367l0.133,0.367l0.133,0.365l0.135,0.366l0.135,0.365l0.137,0.364l0.138,0.364l0.139,0.364l0.14,0.362l0.141,0.363l0.142,0.362l0.143,0.361l0.144,0.36l0.146,0.361l0.146,0.359l0.147,0.359l0.149,0.359l0.15,0.358l0.15,0.357l0.152,0.357l0.153,0.356l0.153,0.356l0.155,0.355l0.156,0.355l0.157,0.354l0.158,0.353l0.159,0.353l0.16,0.353l0.161,0.352l0.162,0.351l0.164,0.35l0.164,0.35l0.165,0.35l0.166,0.349l0.168,0.348l0.168,0.348l0.169,0.347l0.171,0.347l0.171,0.346l0.172,0.345l0.174,0.345l0.174,0.344l0.176,0.344l0.176,0.343l0.178,0.342l0.178,0.342l0.18,0.341l0.18,0.341l0.181,0.34l0.183,0.339l0.183,0.339l0.185,0.338l0.185,0.337l0.187,0.337l0.187,0.337l0.188,0.335l0.19,0.335l0.19,0.335l0.192,0.334l0.192,0.333l0.193,0.332l0.194,0.332l0.196,0.331l0.196,0.331l0.197,0.33l0.198,0.329l0.199,0.329l0.201,0.328l0.201,0.327l0.202,0.327l0.202,0.326l0.204,0.325l0.205,0.325l0.206,0.324l0.207,0.324l0.208,0.323l0.208,0.322l0.21,0.321l0.21,0.321l0.212,0.32l0.212,0.319l0.214,0.319l0.214,0.318l0.215,0.318l0.216,0.316l0.217,0.316l0.218,0.316l0.219,0.314l0.22,0.314l0.221,0.314l0.221,0.312l0.223,0.312l0.223,0.311l0.225,0.311l0.225,0.31l0.226,0.309l0.227,0.308l0.229,0.308l0.228,0.307l0.23,0.306l0.231,0.306l0.232,0.305l0.232,0.304l0.234,0.303l0.234,0.303l0.235,0.302l0.236,0.301l0.237,0.301l0.238,0.3l0.239,0.299l0.239,0.298l0.241,0.298l0.241,0.296l0.242,0.297l0.243,0.295l0.244,0.295l0.245,0.294l0.246,0.293l0.246,0.292l0.248,0.292l0.248,0.291l0.249,0.29l0.25,0.289l0.251,0.289l0.252,0.288l0.252,0.287l0.254,0.286l0.254,0.286l0.255,0.285l0.256,0.284l0.256,0.283l0.258,0.283l0.258,0.282l0.26,0.28l0.26,0.281l0.261,0.279l0.261,0.279l0.263,0.277l0.263,0.278l0.264,0.276l0.266,0.275l0.265,0.275l0.267,0.274l0.267,0.273l0.269,0.272l0.269,0.272l0.27,0.27l0.27,0.27l0.272,0.269l0.272,0.269l0.273,0.267l0.274,0.267l0.275,0.265l0.275,0.266l0.276,0.264l0.278,0.263l0.277,0.263l0.279,0.261l0.279,0.261l0.281,0.26l0.281,0.26l0.281,0.258l0.283,0.258l0.283,0.256l0.284,0.256l0.285,0.255l0.286,0.254l0.286,0.254l0.287,0.252l0.288,0.252l0.289,0.251l0.289,0.25l0.29,0.249l0.291,0.248l0.292,0.248l0.292,0.246l0.293,0.246l0.294,0.245l0.295,0.244l0.295,0.243l0.297,0.242l0.296,0.241l0.298,0.241l0.298,0.239l0.299,0.239l0.3,0.238l0.301,0.237l0.301,0.236l0.302,0.235l0.303,0.234l0.303,0.234l0.304,0.232l0.305,0.232l0.306,0.231l0.306,0.23l0.307,0.228l0.308,0.228l0.308,0.228l0.309,0.226l0.31,0.225l0.311,0.225l0.311,0.223l0.312,0.223l0.312,0.221l0.314,0.221l0.314,0.22l0.314,0.219l0.316,0.218l0.316,0.217l0.316,0.216l0.318,0.215l0.318,0.214l0.319,0.214l0.319,0.212l0.32,0.212l0.321,0.21l0.321,0.21l0.323,0.208l0.322,0.208l0.324,0.207l0.324,0.206l0.325,0.205l0.325,0.204l0.326,0.202l0.327,0.202l0.327,0.201l0.328,0.201l0.329,0.199l0.329,0.198l0.33,0.197l0.331,0.196l0.331,0.196l0.332,0.194l0.332,0.193l0.333,0.192l0.334,0.192l0.335,0.19l0.335,0.189l0.335,0.189l0.337,0.187l0.336,0.187l0.338,0.185l0.338,0.185l0.339,0.183l0.339,0.183l0.34,0.181l0.341,0.18l0.341,0.18l0.342,0.178l0.342,0.178l0.343,0.176l0.344,0.176l0.344,0.174l0.345,0.174l0.345,0.172l0.346,0.171l0.347,0.171l0.347,0.169l0.348,0.168l0.348,0.168l0.349,0.166l0.349,0.165l0.351,0.164l0.35,0.164l0.351,0.162l0.352,0.161l0.353,0.16l0.353,0.159l0.353,0.158l0.354,0.157l0.355,0.156l0.355,0.155l0.356,0.153l0.356,0.153l0.357,0.152l0.357,0.15l0.358,0.15l0.359,0.149l0.359,0.147l0.359,0.146l0.361,0.146l0.36,0.144l0.361,0.143l0.362,0.142l0.363,0.141l0.362,0.14l0.364,0.139l0.364,0.138l0.364,0.137l0.365,0.135l0.365,0.135l0.366,0.133l0.367,0.133l0.367,0.131l0.368,0.13l0.368,0.129l0.368,0.129l0.369,0.126l0.37,0.126l0.37,0.125l0.371,0.124l0.371,0.122l0.371,0.121l0.372,0.121l0.373,0.119l0.373,0.118l0.374,0.117l0.374,0.116l0.374,0.114l0.375,0.114l0.376,0.112l0.376,0.112l0.376,0.11l0.377,0.109l0.378,0.108l0.378,0.107l0.378,0.105l0.379,0.105l0.379,0.103l0.38,0.103l0.381,0.101l0.38,0.1l0.381,0.098l0.382,0.098l0.382,0.097l0.383,0.095l0.383,0.094l0.383,0.093l0.384,0.092l0.385,0.091l0.385,0.089l0.385,0.089l0.385,0.087l0.387,0.086l0.386,0.085l0.387,0.084l0.388,0.082l0.388,0.082l0.388,0.08l0.389,0.079l0.389,0.078l0.39,0.076l0.39,0.076l0.39,0.074l0.391,0.073l0.391,0.072l0.392,0.071l0.392,0.069l0.393,0.068l0.393,0.067l0.393,0.066l0.394,0.065l0.394,0.064l0.395,0.062l0.395,0.061l0.395,0.06l0.396,0.058l0.396,0.058l0.396,0.056l0.397,0.055l0.398,0.054l0.398,0.052l0.398,0.052l0.398,0.05l0.399,0.048l0.399,0.048l0.4,0.046l0.4,0.046l0.4,0.044l0.401,0.042l0.401,0.042l0.402,0.04l0.402,0.039l0.402,0.037l0.402,0.037l0.403,0.035l0.404,0.034l0.403,0.033l0.404,0.031l0.405,0.03l0.405,0.029l0.405,0.028l0.405,0.026l0.406,0.025l0.406,0.024l0.406,0.023l0.407,0.021l0.407,0.02l0.408,0.019l0.408,0.017l0.408,0.016l0.408,0.015l0.409,0.014l0.409,0.012l0.41,0.011l0.41,0.01l0.41,0.009l0.41,0.007l0.411,0.006l0.411,0.004l0.411,0.003l0.412,0.002l0.412,0.001l0.412,-0.001l0.412,-0.002l0.411,-0.003l0.411,-0.004l0.411,-0.006l0.41,-0.007l0.41,-0.009l0.41,-0.01l0.41,-0.011l0.409,-0.012l0.409,-0.014l0.408,-0.015l0.408,-0.016l0.408,-0.017l0.408,-0.019l0.407,-0.02l0.407,-0.021l0.406,-0.023l0.406,-0.024l0.406,-0.025l0.405,-0.026l0.405,-0.028l0.405,-0.029l0.405,-0.03l0.404,-0.031l0.403,-0.033l0.404,-0.034l0.403,-0.035l0.402,-0.037l0.402,-0.037l0.402,-0.039l0.402,-0.04l0.401,-0.042l0.401,-0.042l0.4,-0.044l0.4,-0.046l0.4,-0.046l0.399,-0.048l0.399,-0.048l0.398,-0.05l0.398,-0.052l0.398,-0.052l0.398,-0.054l0.397,-0.055l0.396,-0.056l0.396,-0.058l0.396,-0.058l0.395,-0.06l0.395,-0.061l0.395,-0.062l0.394,-0.064l0.394,-0.065l0.393,-0.066l0.393,-0.067l0.393,-0.068l0.392,-0.069l0.392,-0.071l0.391,-0.072l0.391,-0.073l0.39,-0.074l0.39,-0.076l0.39,-0.076l0.389,-0.078l0.389,-0.079l0.388,-0.08l0.388,-0.082l0.388,-0.082l0.387,-0.084l0.386,-0.085l0.386,-0.086l0.386,-0.087l0.385,-0.089l0.385,-0.089l0.385,-0.091l0.384,-0.092l0.383,-0.093l0.383,-0.094l0.383,-0.095l0.382,-0.097l0.382,-0.098l0.381,-0.098l0.38,-0.1l0.381,-0.101l0.38,-0.103l0.379,-0.103l0.379,-0.105l0.378,-0.105l0.378,-0.107l0.378,-0.108l0.377,-0.109l0.376,-0.11l0.376,-0.112l0.376,-0.112l0.375,-0.114l0.374,-0.114l0.374,-0.116l0.374,-0.117l0.373,-0.118l0.373,-0.119l0.372,-0.121l0.371,-0.121l0.371,-0.122l0.371,-0.124l0.37,-0.125l0.37,-0.126l0.369,-0.126l0.368,-0.129l0.368,-0.129l0.368,-0.13l0.367,-0.131l0.367,-0.133l0.366,-0.133l0.365,-0.135l0.365,-0.135l0.364,-0.137l0.364,-0.138l0.364,-0.139l0.362,-0.14l0.363,-0.141l0.362,-0.142l0.361,-0.143l0.36,-0.144l0.361,-0.146l0.359,-0.146l0.359,-0.147l0.359,-0.149l0.358,-0.15l0.357,-0.15l0.357,-0.152l0.356,-0.153l0.356,-0.153l0.355,-0.155l0.355,-0.156l0.354,-0.157l0.353,-0.158l0.353,-0.159l0.353,-0.16l0.352,-0.161l0.351,-0.162l0.35,-0.164l0.351,-0.164l0.349,-0.165l0.349,-0.166l0.348,-0.168l0.348,-0.168l0.347,-0.169l0.347,-0.171l0.346,-0.171l0.345,-0.172l0.345,-0.174l0.344,-0.174l0.344,-0.176l0.343,-0.176l0.342,-0.178l0.342,-0.178l0.341,-0.18l0.341,-0.18l0.34,-0.181l0.339,-0.183l0.339,-0.183l0.338,-0.185l0.337,-0.185l0.337,-0.187l0.337,-0.187l0.335,-0.189l0.335,-0.189l0.335,-0.19l0.334,-0.192l0.333,-0.192l0.332,-0.193l0.332,-0.194l0.331,-0.196l0.331,-0.196l0.33,-0.197l0.329,-0.198l0.329,-0.199l0.328,-0.201l0.327,-0.201l0.327,-0.202l0.326,-0.202l0.325,-0.204l0.325,-0.205l0.324,-0.206l0.324,-0.207l0.323,-0.208l0.322,-0.208l0.321,-0.21l0.321,-0.21l0.32,-0.212l0.319,-0.212l0.319,-0.214l0.318,-0.214l0.318,-0.215l0.316,-0.216l0.316,-0.217l0.316,-0.218l0.314,-0.219l0.314,-0.22l0.314,-0.221l0.312,-0.221l0.312,-0.223l0.311,-0.223l0.311,-0.225l0.31,-0.225l0.309,-0.226l0.308,-0.228l0.308,-0.228l0.307,-0.228l0.306,-0.23l0.306,-0.231l0.305,-0.232l0.304,-0.232l0.303,-0.234l0.303,-0.234l0.302,-0.235l0.301,-0.236l0.301,-0.237l0.3,-0.238l0.299,-0.239l0.298,-0.239l0.298,-0.241l0.296,-0.241l0.297,-0.242l0.295,-0.243l0.295,-0.244l0.294,-0.245l0.293,-0.246l0.292,-0.246l0.292,-0.248l0.291,-0.248l0.29,-0.249l0.289,-0.25l0.289,-0.251l0.288,-0.252l0.287,-0.252l0.286,-0.254l0.286,-0.254l0.285,-0.255l0.284,-0.256l0.283,-0.256l0.283,-0.258l0.281,-0.258l0.281,-0.26l0.281,-0.26l0.279,-0.261l0.279,-0.261l0.277,-0.263l0.278,-0.263l0.276,-0.264l0.275,-0.265l0.275,-0.266l0.274,-0.267l0.273,-0.267l0.272,-0.269l0.272,-0.269l0.27,-0.27l0.27,-0.27l0.269,-0.272l0.269,-0.272l0.267,-0.273l0.267,-0.274l0.265,-0.275l0.266,-0.275l0.264,-0.276l0.263,-0.278l0.263,-0.277l0.261,-0.279l0.261,-0.279l0.26,-0.281l0.26,-0.281l0.258,-0.281l0.258,-0.283l0.256,-0.283l0.256,-0.284l0.255,-0.285l0.254,-0.286l0.254,-0.286l0.252,-0.287l0.252,-0.288l0.251,-0.289l0.25,-0.289l0.249,-0.29l0.248,-0.291l0.248,-0.292l0.246,-0.292l0.246,-0.293l0.245,-0.294l0.244,-0.295l0.243,-0.295l0.242,-0.297l0.241,-0.296l0.241,-0.298l0.239,-0.298l0.239,-0.299l0.238,-0.3l0.237,-0.301l0.236,-0.301l0.235,-0.302l0.234,-0.303l0.234,-0.303l0.232,-0.304l0.232,-0.305l0.231,-0.306l0.23,-0.306l0.228,-0.307l0.228,-0.308l0.228,-0.308l0.226,-0.309l0.225,-0.31l0.225,-0.311l0.223,-0.311l0.223,-0.312l0.221,-0.312l0.221,-0.314l0.22,-0.313l0.219,-0.315l0.218,-0.316l0.217,-0.316l0.216,-0.316l0.215,-0.318l0.214,-0.318l0.214,-0.319l0.212,-0.319l0.212,-0.32l0.21,-0.321l0.21,-0.321l0.208,-0.323l0.208,-0.322l0.207,-0.324l0.206,-0.324l0.205,-0.324l0.203,-0.326l0.203,-0.326l0.202,-0.327l0.201,-0.327l0.201,-0.328l0.199,-0.329l0.198,-0.329l0.197,-0.33l0.196,-0.331l0.195,-0.331l0.195,-0.332l0.193,-0.332l0.192,-0.334l0.192,-0.333l0.19,-0.335l0.19,-0.335l0.188,-0.335l0.187,-0.337l0.187,-0.337l0.185,-0.337l0.185,-0.338l0.183,-0.339l0.183,-0.339l0.181,-0.34l0.18,-0.341l0.18,-0.341l0.178,-0.342l0.178,-0.342l0.176,-0.343l0.176,-0.344l0.174,-0.344l0.174,-0.345l0.172,-0.345l0.171,-0.346l0.171,-0.347l0.169,-0.347l0.168,-0.348l0.168,-0.348l0.166,-0.349l0.165,-0.35l0.164,-0.35l0.164,-0.35l0.162,-0.351l0.161,-0.352l0.16,-0.353l0.159,-0.353l0.158,-0.353l0.157,-0.354l0.156,-0.355l0.155,-0.355l0.153,-0.356l0.153,-0.356l0.152,-0.357l0.15,-0.357l0.15,-0.358l0.149,-0.359l0.147,-0.359l0.146,-0.359l0.146,-0.361l0.144,-0.36l0.143,-0.361l0.142,-0.362l0.141,-0.363l0.14,-0.362l0.139,-0.364l0.138,-0.364l0.137,-0.364l0.135,-0.365l0.135,-0.366l0.133,-0.366l0.133,-0.366l0.131,-0.367l0.13,-0.368l0.129,-0.368l0.128,-0.368l0.127,-0.369l0.126,-0.37l0.125,-0.37l0.124,-0.371l0.122,-0.371l0.121,-0.371l0.121,-0.372l0.119,-0.373l0.118,-0.373l0.117,-0.374l0.116,-0.374l0.114,-0.374l0.114,-0.375l0.112,-0.376l0.112,-0.376l0.11,-0.376l0.109,-0.377l0.108,-0.378l0.107,-0.378l0.105,-0.378l0.105,-0.379l0.103,-0.379l0.103,-0.38l0.101,-0.381l0.1,-0.38l0.098,-0.381l0.098,-0.382l0.097,-0.382l0.095,-0.383l0.094,-0.383l0.093,-0.383l0.092,-0.384l0.091,-0.385l0.089,-0.385l0.089,-0.385l0.087,-0.386l0.086,-0.386l0.085,-0.386l0.084,-0.387l0.082,-0.388l0.082,-0.388l0.08,-0.388l0.079,-0.389l0.078,-0.389l0.076,-0.39l0.076,-0.39l0.074,-0.39l0.073,-0.391l0.072,-0.391l0.071,-0.392l0.069,-0.392l0.068,-0.393l0.067,-0.393l0.066,-0.393l0.065,-0.394l0.064,-0.394l0.062,-0.395l0.061,-0.395l0.06,-0.395l0.058,-0.396l0.058,-0.396l0.056,-0.396l0.055,-0.397l0.054,-0.398l0.052,-0.397l0.052,-0.399l0.05,-0.398l0.048,-0.399l0.048,-0.399l0.046,-0.4l0.046,-0.4l0.044,-0.4l0.042,-0.401l0.042,-0.401l0.04,-0.402l0.039,-0.401l0.037,-0.403l0.037,-0.402l0.035,-0.403l0.034,-0.404l0.033,-0.403l0.031,-0.404l0.03,-0.405l0.029,-0.405l0.028,-0.405l0.026,-0.405l0.025,-0.406l0.024,-0.406l0.023,-0.406l0.021,-0.407l0.02,-0.407l0.019,-0.408l0.017,-0.408l0.016,-0.408l0.015,-0.408l0.014,-0.409l0.012,-0.409l0.011,-0.41l0.01,-0.41l0.009,-0.41l0.007,-0.41l0.006,-0.411l0.004,-0.411l0.003,-0.411l0.002,-0.412l0.001,-0.412l-0.001,-0.412l-0.002,-0.412l-0.003,-0.411l-0.004,-0.411l-0.006,-0.411l-0.007,-0.41l-0.009,-0.41l-0.01,-0.41l-0.011,-0.41l-0.012,-0.409l-0.014,-0.409l-0.015,-0.408l-0.016,-0.408l-0.017,-0.408l-0.019,-0.407l-0.02,-0.408l-0.021,-0.407l-0.023,-0.406l-0.024,-0.406l-0.025,-0.406l-0.026,-0.405l-0.028,-0.405l-0.029,-0.405l-0.03,-0.405l-0.031,-0.404l-0.033,-0.403l-0.034,-0.404l-0.035,-0.403l-0.037,-0.402l-0.037,-0.402l-0.039,-0.402l-0.04,-0.402l-0.042,-0.401l-0.042,-0.401l-0.044,-0.4l-0.046,-0.4l-0.046,-0.4l-0.048,-0.399l-0.048,-0.399l-0.05,-0.398l-0.052,-0.399l-0.052,-0.397l-0.054,-0.398l-0.055,-0.397l-0.056,-0.396l-0.058,-0.396l-0.058,-0.396l-0.06,-0.396l-0.061,-0.394l-0.062,-0.395l-0.064,-0.394l-0.065,-0.394l-0.066,-0.393l-0.067,-0.393l-0.068,-0.393l-0.069,-0.392l-0.071,-0.392l-0.072,-0.391l-0.073,-0.391l-0.074,-0.39l-0.076,-0.39l-0.076,-0.39l-0.078,-0.389l-0.079,-0.389l-0.08,-0.388l-0.082,-0.388l-0.082,-0.388l-0.084,-0.387l-0.085,-0.386l-0.086,-0.387l-0.087,-0.385l-0.089,-0.385l-0.089,-0.385l-0.091,-0.385l-0.092,-0.384l-0.093,-0.383l-0.094,-0.383l-0.095,-0.383l-0.097,-0.382l-0.098,-0.382l-0.098,-0.381l-0.1,-0.38l-0.101,-0.381l-0.103,-0.38l-0.103,-0.379l-0.105,-0.379l-0.105,-0.378l-0.107,-0.378l-0.108,-0.378l-0.109,-0.377l-0.11,-0.376l-0.112,-0.376l-0.112,-0.376l-0.114,-0.375l-0.114,-0.374l-0.116,-0.374l-0.117,-0.374l-0.118,-0.373l-0.119,-0.373l-0.121,-0.372l-0.121,-0.371l-0.122,-0.371l-0.124,-0.371l-0.125,-0.37l-0.126,-0.37l-0.127,-0.369l-0.128,-0.368l-0.129,-0.368l-0.13,-0.368l-0.131,-0.367l-0.133,-0.366l-0.133,-0.367l-0.135,-0.365l-0.135,-0.365l-0.137,-0.364l-0.138,-0.364l-0.139,-0.364l-0.14,-0.362l-0.141,-0.363l-0.142,-0.362l-0.143,-0.361l-0.144,-0.36l-0.146,-0.361l-0.146,-0.359l-0.147,-0.359l-0.149,-0.359l-0.15,-0.358l-0.15,-0.357l-0.152,-0.357l-0.153,-0.356l-0.153,-0.356l-0.155,-0.355l-0.156,-0.355l-0.157,-0.354l-0.158,-0.353l-0.159,-0.353l-0.16,-0.353l-0.161,-0.352l-0.162,-0.351l-0.164,-0.35l-0.164,-0.35l-0.165,-0.35l-0.166,-0.349l-0.168,-0.348l-0.168,-0.348l-0.169,-0.347l-0.171,-0.347l-0.171,-0.346l-0.172,-0.345l-0.174,-0.345l-0.174,-0.344l-0.176,-0.344l-0.176,-0.343l-0.178,-0.342l-0.178,-0.342l-0.18,-0.341l-0.18,-0.341l-0.181,-0.34l-0.183,-0.339l-0.183,-0.339l-0.185,-0.338l-0.185,-0.337l-0.187,-0.337l-0.187,-0.337l-0.188,-0.335l-0.19,-0.335l-0.19,-0.335l-0.192,-0.333l-0.192,-0.334l-0.193,-0.332l-0.195,-0.332l-0.195,-0.331l-0.196,-0.331l-0.197,-0.33l-0.198,-0.329l-0.199,-0.329l-0.201,-0.328l-0.201,-0.327l-0.202,-0.327l-0.203,-0.326l-0.203,-0.326l-0.205,-0.324l-0.206,-0.324l-0.207,-0.324l-0.208,-0.323l-0.208,-0.322l-0.21,-0.321l-0.21,-0.321l-0.212,-0.32l-0.212,-0.319l-0.214,-0.319l-0.214,-0.318l-0.215,-0.318l-0.216,-0.316l-0.217,-0.316l-0.218,-0.316l-0.219,-0.315l-0.22,-0.313l-0.221,-0.314l-0.221,-0.312l-0.223,-0.312l-0.223,-0.311l-0.225,-0.311l-0.225,-0.31l-0.226,-0.309l-0.228,-0.308l-0.228,-0.308l-0.228,-0.307l-0.23,-0.306l-0.231,-0.306l-0.232,-0.305l-0.232,-0.304l-0.234,-0.303l-0.234,-0.303l-0.235,-0.302l-0.236,-0.301l-0.237,-0.301l-0.238,-0.3l-0.239,-0.299l-0.239,-0.298l-0.241,-0.298l-0.241,-0.296l-0.242,-0.297l-0.243,-0.295l-0.244,-0.295l-0.245,-0.294l-0.246,-0.293l-0.246,-0.292l-0.248,-0.292l-0.248,-0.291l-0.249,-0.29l-0.25,-0.289l-0.251,-0.289l-0.252,-0.288l-0.252,-0.287l-0.254,-0.286l-0.254,-0.286l-0.255,-0.285l-0.256,-0.284l-0.256,-0.283l-0.258,-0.283l-0.258,-0.281l-0.26,-0.281l-0.26,-0.281l-0.261,-0.279l-0.261,-0.279l-0.263,-0.277l-0.263,-0.278l-0.264,-0.276l-0.265,-0.275l-0.266,-0.275l-0.267,-0.274l-0.267,-0.273l-0.269,-0.272l-0.269,-0.272l-0.27,-0.27l-0.27,-0.27l-0.272,-0.269l-0.272,-0.269l-0.273,-0.267l-0.274,-0.267l-0.275,-0.266l-0.275,-0.265l-0.276,-0.264l-0.278,-0.263l-0.277,-0.263l-0.279,-0.261l-0.279,-0.261l-0.281,-0.26l-0.281,-0.26l-0.281,-0.258l-0.283,-0.258l-0.283,-0.256l-0.284,-0.256l-0.285,-0.255l-0.286,-0.254l-0.286,-0.254l-0.287,-0.252l-0.288,-0.252l-0.289,-0.251l-0.289,-0.25l-0.29,-0.249l-0.291,-0.248l-0.292,-0.248l-0.292,-0.246l-0.293,-0.246l-0.294,-0.245l-0.295,-0.244l-0.295,-0.243l-0.297,-0.242l-0.296,-0.241l-0.298,-0.241l-0.298,-0.239l-0.299,-0.239l-0.3,-0.238l-0.301,-0.237l-0.301,-0.236l-0.302,-0.235l-0.303,-0.234l-0.303,-0.234l-0.304,-0.232l-0.305,-0.232l-0.306,-0.231l-0.306,-0.23l-0.307,-0.228l-0.308,-0.228l-0.308,-0.228l-0.309,-0.226l-0.31,-0.225l-0.311,-0.225l-0.311,-0.223l-0.312,-0.223l-0.312,-0.221l-0.314,-0.221l-0.314,-0.22l-0.314,-0.219l-0.316,-0.218l-0.316,-0.217l-0.316,-0.216l-0.318,-0.215l-0.318,-0.214l-0.319,-0.214l-0.319,-0.212l-0.32,-0.212l-0.321,-0.21l-0.321,-0.21l-0.322,-0.208l-0.323,-0.208l-0.324,-0.207l-0.324,-0.206l-0.324,-0.205l-0.326,-0.203l-0.326,-0.203l-0.327,-0.202l-0.327,-0.201l-0.328,-0.201l-0.329,-0.199l-0.329,-0.198l-0.33,-0.197l-0.331,-0.196l-0.331,-0.195l-0.332,-0.195l-0.332,-0.193l-0.333,-0.192l-0.334,-0.192l-0.335,-0.19l-0.335,-0.19l-0.335,-0.188l-0.337,-0.187l-0.337,-0.187l-0.337,-0.185l-0.338,-0.185l-0.339,-0.183l-0.339,-0.183l-0.34,-0.181l-0.341,-0.18l-0.341,-0.18l-0.342,-0.178l-0.342,-0.178l-0.343,-0.176l-0.344,-0.176l-0.344,-0.174l-0.345,-0.174l-0.345,-0.172l-0.346,-0.171l-0.347,-0.171l-0.347,-0.169l-0.348,-0.168l-0.348,-0.168l-0.349,-0.166l-0.349,-0.165l-0.351,-0.164l-0.35,-0.164l-0.351,-0.162l-0.352,-0.161l-0.353,-0.16l-0.353,-0.159l-0.353,-0.158l-0.354,-0.157l-0.355,-0.156l-0.355,-0.155l-0.356,-0.153l-0.356,-0.153l-0.357,-0.152l-0.357,-0.15l-0.358,-0.15l-0.359,-0.149l-0.359,-0.147l-0.359,-0.146l-0.361,-0.146l-0.36,-0.144l-0.362,-0.143l-0.361,-0.142l-0.363,-0.141l-0.362,-0.14l-0.364,-0.139l-0.364,-0.138l-0.364,-0.137l-0.365,-0.135l-0.365,-0.135l-0.366,-0.133l-0.367,-0.133l-0.367,-0.131l-0.368,-0.13l-0.368,-0.129l-0.368,-0.128l-0.369,-0.127l-0.37,-0.126l-0.37,-0.125l-0.371,-0.124l-0.371,-0.122l-0.371,-0.121l-0.372,-0.121l-0.373,-0.119l-0.373,-0.118l-0.374,-0.117l-0.374,-0.116l-0.374,-0.114l-0.375,-0.114l-0.376,-0.112l-0.376,-0.112l-0.376,-0.11l-0.377,-0.109l-0.378,-0.108l-0.378,-0.107l-0.378,-0.105l-0.379,-0.105l-0.379,-0.103l-0.38,-0.103l-0.381,-0.101l-0.38,-0.1l-0.381,-0.098l-0.382,-0.098l-0.382,-0.097l-0.383,-0.095l-0.383,-0.094l-0.383,-0.093l-0.384,-0.092l-0.385,-0.091l-0.385,-0.089l-0.385,-0.089l-0.386,-0.087l-0.386,-0.086l-0.386,-0.085l-0.387,-0.084l-0.388,-0.082l-0.388,-0.082l-0.388,-0.08l-0.389,-0.079l-0.389,-0.078l-0.39,-0.076l-0.39,-0.076l-0.39,-0.074l-0.391,-0.073l-0.391,-0.072l-0.392,-0.071l-0.392,-0.069l-0.393,-0.068l-0.393,-0.067l-0.393,-0.066l-0.394,-0.065l-0.394,-0.064l-0.395,-0.062l-0.395,-0.061l-0.395,-0.06l-0.396,-0.058l-0.396,-0.058l-0.396,-0.056l-0.397,-0.055l-0.398,-0.054l-0.398,-0.052l-0.398,-0.052l-0.398,-0.05l-0.399,-0.048l-0.399,-0.048l-0.4,-0.046l-0.4,-0.046l-0.4,-0.044l-0.401,-0.042l-0.401,-0.042l-0.402,-0.04l-0.402,-0.039l-0.402,-0.037l-0.402,-0.037l-0.403,-0.035l-0.404,-0.034l-0.403,-0.033l-0.404,-0.031l-0.405,-0.03l-0.405,-0.029l-0.405,-0.028l-0.405,-0.026l-0.406,-0.025l-0.406,-0.024l-0.406,-0.023l-0.407,-0.021l-0.407,-0.02l-0.408,-0.019l-0.408,-0.017l-0.408,-0.016l-0.408,-0.015l-0.409,-0.014l-0.409,-0.012l-0.41,-0.011l-0.41,-0.01l-0.41,-0.009l-0.41,-0.007l-0.411,-0.006l-0.411,-0.004l-0.411,-0.003l-0.412,-0.002l-0.412,-0.001l-0.412,0.001Z" style="fill:#b32e56;"/><path d="M188.635,313.065c-0.91,1.04 -1.3,2.34 -1.3,3.38c0,1.95 1.3,3.64 3.38,3.64c0.65,0 1.43,-0.13 2.21,-0.65l30.03,-17.81c13.91,-8.19 22.75,-14.56 22.75,-28.08c0,-18.98 -18.72,-26.13 -38.61,-26.13c-23.92,0 -43.81,6.76 -42.51,23.14c0.65,8.45 5.07,10.53 10.27,10.53c3.51,0 8.32,-1.43 12.61,-4.16l27.95,-17.68c2.73,-1.69 5.46,-2.86 7.8,-2.86c3.38,0 5.85,1.69 5.85,4.81c0,2.34 -1.3,5.46 -4.81,9.1l-35.62,42.77Zm25.74,28.34c0.91,-10.4 -8.58,-12.87 -17.16,-12.87c-8.97,0 -11.18,4.29 -11.7,9.75c-0.91,9.88 10.14,12.87 18.72,12.87c5.07,0 9.62,-2.6 10.14,-9.75Z" style="fill:#fff;fill-rule:nonzero;"/><g id="Layer_1"><g><rect x="24.9" y="44.1" width="95.1" height="76.9" style="fill:none;"/></g></g></svg>